<svg id="Layer_1" data-name="Layer 1" xmlns="http://www.w3.org/2000/svg" viewBox="0 0 51.58 51.48"><defs><style>.cls-1{fill:#242424;}</style></defs><path class="cls-1" d="M44.93,48.19c2-4.81,2.35-10.94,1-17.26A38.39,38.39,0,0,0,44.52,26l0,0a10,10,0,0,0,2.22-10.74h4.8a2,2,0,0,0,0-4H45.16V4.88a2,2,0,1,0-4,0V9.6a10,10,0,0,0-10.77,2.21l0,0a36.57,36.57,0,0,0-4.95-1.41c-6.31-1.35-12.44-1-17.25,1a10,10,0,0,0,.63,18.77,14.24,14.24,0,0,0,2.51,12L7.6,46a2,2,0,0,0,2.8,2.79l3.73-3.72a14.26,14.26,0,0,0,12,2.51,10.14,10.14,0,0,0,2.42,3.89,10,10,0,0,0,16.36-3.26ZM41.77,14.61a6.05,6.05,0,0,1,.94,7.31,15.21,15.21,0,0,0-2.49-3.48l-2.28-2.28a15.21,15.21,0,0,0-3.48-2.49,6,6,0,0,1,7.31.94ZM15.43,41a10.4,10.4,0,0,1-3-6.34L21.77,44a10.37,10.37,0,0,1-6.34-3Zm11-.43a10.64,10.64,0,0,0-.57,1.9L14,30.56A10,10,0,0,0,15.87,30l2.2-.92,9.25,9.25ZM22,27.41,26,25.76l4.67,4.66L29,34.37ZM29.9,24.1,34,22.39l-1.71,4.09ZM7.73,25a5.89,5.89,0,0,1-1.32-2A6.08,6.08,0,0,1,9.7,15.11c6.41-2.66,14.82-1.38,20.41.87a1.19,1.19,0,0,0,.26.11,19.38,19.38,0,0,1,3.7,2l-8.39,3.52h0l-7.87,3.3h0l-3.43,1.44a6.19,6.19,0,0,1-2.73.45h-.1A6.09,6.09,0,0,1,7.73,25ZM33.34,50a5.86,5.86,0,0,1-2-1.31,6.06,6.06,0,0,1-1.76-3.81s0-.05,0-.07A6,6,0,0,1,30.05,42l1.44-3.44h0l3.3-7.87v0l3.51-8.39a18.64,18.64,0,0,1,2,3.71,2.44,2.44,0,0,0,.1.24c2.25,5.58,3.54,14,.88,20.42A6.07,6.07,0,0,1,33.34,50Zm0,0" transform="translate(-1.99 -2.9)"/></svg>