<svg id="Layer_1" data-name="Layer 1" xmlns="http://www.w3.org/2000/svg" viewBox="0 0 238.82 182.84"><defs><style>.cls-1{fill:#372b72;}.cls-2{fill:#bdbec0;}.cls-3{fill:#fff;}.cls-4{fill:#186ea1;}.cls-5{fill:#1599d6;}.cls-6{fill:none;}.cls-7{fill:#37bde2;}.cls-8{fill:#25aee4;}.cls-9{fill:#eb5b9c;}.cls-10{fill:#e1408f;}.cls-11{fill:#a82a74;}.cls-12{fill:#fede3a;}.cls-13{fill:#f7cb13;}.cls-14{fill:#e7e8e9;}.cls-15{fill:#146fa1;}.cls-16{fill:#22ade3;}.cls-17{fill:#1998d6;}.cls-18{fill:#fddd3a;}.cls-19{fill:#e7ad26;}.cls-20{fill:#f6ca13;}.cls-21{fill:#bbbdbf;}.cls-22{fill:#d0d2d3;}.cls-23{fill:#fbeb40;}.cls-24{fill:#34bce2;}</style></defs><path class="cls-1" d="M238.5,60.5l-24.32-6.62V44.62a6.48,6.48,0,0,0-6.47-6.48h-79.3a6.48,6.48,0,0,0-6.47,6.48v39.8H80.43a5.86,5.86,0,0,0-4.32,1.91L65.35,102H58.61V99.07h1.54a2.53,2.53,0,0,0,2.53-2.53V91.06a2.53,2.53,0,0,0-2.53-2.53H41.84a2.53,2.53,0,0,0-2.53,2.53v5.48a2.53,2.53,0,0,0,2.53,2.53h1.54V102h-15V99.07h1.54a2.53,2.53,0,0,0,2.53-2.53V91.06a2.53,2.53,0,0,0-2.53-2.53H11.57A2.53,2.53,0,0,0,9,91.06v5.48a2.53,2.53,0,0,0,2.53,2.53h1.54V102H10.86A5.86,5.86,0,0,0,5,107.86v96.08a5.86,5.86,0,0,0,5.86,5.86H173.35a5.85,5.85,0,0,0,5.85-5.86V164.83L208,172.66a6.47,6.47,0,0,0,7.95-4.54l.85-3.13h0l26.29-96.55A6.47,6.47,0,0,0,238.5,60.5Z" transform="translate(-5 -26.97)"/><rect class="cls-2" x="138.43" y="40.04" width="92.24" height="113.01" rx="4.05" transform="matrix(-0.96, -0.26, 0.26, -0.96, 332.25, 211.22)"/><rect class="cls-3" x="139.28" y="36.92" width="92.24" height="113.01" rx="4.05" transform="translate(334.74 205.31) rotate(-164.77)"/><path class="cls-4" d="M138,113.51,158.55,38a4.33,4.33,0,0,1,1.22-2,4.26,4.26,0,0,1,4.08-1l69.74,19a4.32,4.32,0,0,1,3,5.3L226.45,96.66h0l-4.61,17h0l-3.4,12.47h0l-2.36,8.68a4.32,4.32,0,0,1-5.3,3l-47.94-13-9.73-2.65h0L141,118.8A4.31,4.31,0,0,1,138,113.51Z" transform="translate(-5 -26.97)"/><path class="cls-5" d="M152.75,59.35,158.55,38a4.33,4.33,0,0,1,1.22-2,4.26,4.26,0,0,1,4.08-1l69.74,19a4.32,4.32,0,0,1,3,5.3L229.7,84.72a68.59,68.59,0,0,1-76.95-25.37Z" transform="translate(-5 -26.97)"/><path class="cls-6" d="M158.55,38,138,113.51a4.31,4.31,0,0,0,3,5.29l69.75,19a4.32,4.32,0,0,0,5.3-3l20.54-75.47a4.32,4.32,0,0,0-3-5.3L163.85,35a4.26,4.26,0,0,0-4.08,1A4.33,4.33,0,0,0,158.55,38Z" transform="translate(-5 -26.97)"/><rect class="cls-2" x="121.94" y="30.2" width="92.24" height="113.01" rx="4.05" transform="translate(331.12 146.45) rotate(-180)"/><rect class="cls-3" x="121.94" y="26.97" width="92.24" height="113.01" rx="4.05" transform="translate(331.12 139.98) rotate(-180)"/><path class="cls-3" d="M127.6,37.08V115.3a4.31,4.31,0,0,0,4.32,4.31H204.2a4.31,4.31,0,0,0,4.32-4.31V37.08a4.31,4.31,0,0,0-4.32-4.31H131.92a4.35,4.35,0,0,0-4.32,4.31Z" transform="translate(-5 -26.97)"/><path class="cls-7" d="M127.6,37.08V115.3a4.31,4.31,0,0,0,4.32,4.31h22.6l36.59-9,9.75-2.4,7.66-1.89V37.08a4.31,4.31,0,0,0-4.32-4.31H131.92a4.35,4.35,0,0,0-4.32,4.31Z" transform="translate(-5 -26.97)"/><path class="cls-8" d="M127.6,37.08V48.13l80.92,27.68V37.08a4.31,4.31,0,0,0-4.32-4.31H131.92a4.35,4.35,0,0,0-4.32,4.31Z" transform="translate(-5 -26.97)"/><path class="cls-5" d="M128.25,34.83l14.63,2.42,1.56.26,3.33.55,11.33,1.88,22.71,3.76,3.83.64,13.46,2.22,9.42,1.57V37.08a4.31,4.31,0,0,0-4.32-4.31H131.92A4.24,4.24,0,0,0,128.25,34.83Z" transform="translate(-5 -26.97)"/><path class="cls-9" d="M154.52,119.61H204.2a4.31,4.31,0,0,0,4.32-4.31v-9l-7.66,1.89-9.75,2.4Z" transform="translate(-5 -26.97)"/><path class="cls-10" d="M127.6,95.29v20a4.31,4.31,0,0,0,4.32,4.31h22.6l36.59-9-6.65-12-17.81-32A5.73,5.73,0,0,0,163.39,64a5,5,0,0,0-.66-.18l-.28-.05c-.12,0-.25,0-.38,0l-.42,0a5.74,5.74,0,0,0-4.08,1.67Z" transform="translate(-5 -26.97)"/><path class="cls-11" d="M208.52,93.37,197.73,81.3a5.75,5.75,0,0,0-9.89,2.55l-3.38,14.79,6.66,12,17.4-4.29Z" transform="translate(-5 -26.97)"/><circle class="cls-12" cx="184.76" cy="22.36" r="9.74"/><path class="cls-13" d="M185.86,40.4a9.87,9.87,0,0,0-.32,2.51,9.74,9.74,0,0,0,13.63,8.92A9.73,9.73,0,1,1,185.86,40.4Z" transform="translate(-5 -26.97)"/><path class="cls-3" d="M148.33,47.77l-.08-.08,0,0-10.94-3.54a1.92,1.92,0,0,1-1.22-2.47A6.7,6.7,0,0,1,137,40a6.8,6.8,0,0,1,10.05-1l.05-.08a6.83,6.83,0,0,1,12.46,4.79,6.72,6.72,0,0,1,2.61,1,6.81,6.81,0,0,1,3.1,6.1,1.9,1.9,0,0,1-2.5,1.65Z" transform="translate(-5 -26.97)"/><path class="cls-14" d="M155.15,36.46l.49.28-.29.12Z" transform="translate(-5 -26.97)"/><path class="cls-14" d="M147.39,43.77l0,0a.27.27,0,0,1,.08.07l14.45,4.69a1.91,1.91,0,0,0,2.47-1.42,6.88,6.88,0,0,1,.87,3.73,1.9,1.9,0,0,1-2.5,1.65l-14.45-4.69-.08-.08,0,0-10.94-3.54a1.92,1.92,0,0,1-1.22-2.47,7.25,7.25,0,0,1,.7-1.39Z" transform="translate(-5 -26.97)"/><path class="cls-3" d="M184.2,64.69l-.08-.07,0,0L173.19,61A1.89,1.89,0,0,1,172,58.59a7.59,7.59,0,0,1,4.45-4.39,2,2,0,0,1,.6-.15,7.54,7.54,0,0,1,6,1.85l0-.07a6.82,6.82,0,0,1,12.5,3.63,1.87,1.87,0,0,0,1.22,1.66,7.92,7.92,0,0,1,1.29.67,6.83,6.83,0,0,1,3,6.06,1.92,1.92,0,0,1-2.53,1.7Z" transform="translate(-5 -26.97)"/><path class="cls-14" d="M172.86,56.92a1.77,1.77,0,0,0,.59.32l10.9,3.67,0,0,.08.07,14.38,4.85a1.94,1.94,0,0,0,1.95-.43,7.17,7.17,0,0,1,.32,2.48,1.92,1.92,0,0,1-2.53,1.7L184.2,64.69l-.08-.07,0,0L173.19,61A1.89,1.89,0,0,1,172,58.59,6.91,6.91,0,0,1,172.86,56.92Z" transform="translate(-5 -26.97)"/><path class="cls-9" d="M127.6,95.29v20a4.31,4.31,0,0,0,4.32,4.31h12.51l19-55.62h0a4.91,4.91,0,0,0-.66-.17l-.28-.05c-.12,0-.25,0-.38,0l-.42,0a5.74,5.74,0,0,0-4.08,1.67Z" transform="translate(-5 -26.97)"/><path class="cls-10" d="M193.12,79.4a5.67,5.67,0,0,1,4.61,1.9l10.79,12.07V106.3l-7.66,1.89Z" transform="translate(-5 -26.97)"/><path class="cls-6" d="M127.6,37.08V115.3a4.31,4.31,0,0,0,4.32,4.31H204.2a4.31,4.31,0,0,0,4.32-4.31V37.08a4.31,4.31,0,0,0-4.32-4.31H131.92a4.35,4.35,0,0,0-4.32,4.31Z" transform="translate(-5 -26.97)"/><path class="cls-15" d="M3.67,71.67H174.2a0,0,0,0,1,0,0V168a3.67,3.67,0,0,1-3.67,3.67H3.67A3.67,3.67,0,0,1,0,168V75.34a3.67,3.67,0,0,1,3.67-3.67Z"/><path class="cls-16" d="M3.67,63.86H174.2a0,0,0,0,1,0,0v96.32a3.67,3.67,0,0,1-3.67,3.67H3.67A3.67,3.67,0,0,1,0,160.18V67.53a3.67,3.67,0,0,1,3.67-3.67Z"/><rect class="cls-17" x="51.23" y="63.86" width="9.11" height="99.99"/><path class="cls-16" d="M80.43,73.25h92.92a5.85,5.85,0,0,1,5.85,5.86V97.33H65.35V90.82L76.11,75.15A5.85,5.85,0,0,1,80.43,73.25Z" transform="translate(-5 -26.97)"/><rect class="cls-16" x="34.31" y="50.38" width="23.37" height="10.55" rx="1.59"/><rect class="cls-16" x="4.04" y="50.38" width="23.37" height="10.55" rx="1.59"/><rect class="cls-15" x="38.37" y="60.93" width="15.23" height="2.93"/><rect class="cls-15" x="8.1" y="60.93" width="15.23" height="2.93"/><rect class="cls-18" y="80.91" width="174.2" height="65.36"/><path class="cls-19" d="M122.28,109.57A39.06,39.06,0,0,0,92,173.24h60.66a39.06,39.06,0,0,0-30.33-63.67Z" transform="translate(-5 -26.97)"/><rect class="cls-20" x="51.23" y="80.91" width="9.11" height="65.36"/><path class="cls-17" d="M92,173.24a39.06,39.06,0,0,0,60.66,0Z" transform="translate(-5 -26.97)"/><circle class="cls-21" cx="117.27" cy="117.76" r="39.06"/><circle class="cls-3" cx="117.27" cy="113.85" r="39.06"/><circle class="cls-17" cx="117.27" cy="113.85" r="29.15"/><circle class="cls-16" cx="117.27" cy="113.85" r="24.87"/><circle class="cls-15" cx="117.27" cy="113.85" r="17.58"/><circle class="cls-17" cx="117.27" cy="113.85" r="8.91"/><path class="cls-3" d="M132,136.07a4.86,4.86,0,1,1-4.86-4.85A4.86,4.86,0,0,1,132,136.07Z" transform="translate(-5 -26.97)"/><rect class="cls-15" x="78.61" y="51.03" width="5.66" height="5.66" rx="0.7"/><circle class="cls-3" cx="71.28" cy="83.58" r="6.93"/><circle class="cls-22" cx="71.28" cy="83.58" r="4.3"/><rect class="cls-15" x="18.91" y="69.08" width="27.86" height="8.23" rx="0.7"/><rect class="cls-23" x="8.75" y="80.91" width="10.16" height="65.36"/><rect class="cls-24" x="8.75" y="63.86" width="10.16" height="17.06"/><rect class="cls-24" x="8.75" y="146.27" width="10.16" height="17.58"/><rect class="cls-23" x="163.53" y="80.91" width="6.12" height="65.36"/><rect class="cls-18" x="90.23" y="50.22" width="23.24" height="7.29" rx="0.51"/><path class="cls-15" d="M67.16,191.4H5v-4.3H53.27a15.14,15.14,0,0,1,5.46,1Z" transform="translate(-5 -26.97)"/><polygon class="cls-17" points="174.2 60.73 62.47 60.73 60.34 63.86 174.2 63.86 174.2 60.73"/><rect class="cls-17" x="139.31" y="51.03" width="30.34" height="19.4" rx="1.46"/><rect class="cls-15" x="142.86" y="54.09" width="23.24" height="13.28" rx="0.69"/></svg>