<svg xmlns="http://www.w3.org/2000/svg" viewBox="0 0 64 64"><title>camera</title><g id="_01_Camera" data-name="01 Camera"><path d="M61,15.209H54.173a1,1,0,0,1-.938-.653l-2.066-5.6A3.008,3.008,0,0,0,48.353,7H37.821A3.01,3.01,0,0,0,35,8.957l-2.066,5.6a1,1,0,0,1-.938.653H3a3,3,0,0,0-3,2.985V54.015A3,3,0,0,0,3,57H61a3,3,0,0,0,3-2.985V18.194A3,3,0,0,0,61,15.209Z" style="fill:#006994"/><path d="M18.938,13.129H10.312a1,1,0,0,1,0-2h8.626a1,1,0,0,1,0,2Z" style="fill:#006994"/><circle cx="32" cy="36.125" r="11.833" style="fill:#f0e747"/></g></svg>