<svg xmlns="http://www.w3.org/2000/svg" viewBox="0 0 48 48"><title>Computer Web Coding </title><g id="Computer_Web_Coding" data-name="Computer Web Coding" style="fill:#006994"><path d="M7,7H5A2,2,0,0,0,3,9V31H7Z" style="fill:#006994"/><path d="M43,7H41V31h4V9A2,2,0,0,0,43,7Z" style="fill:#006994"/><path d="M3,37a2,2,0,0,0,2,2H43a2,2,0,0,0,2-2V33H3Zm21-2a1,1,0,0,1,0,2A1,1,0,0,1,24,35Z" style="fill:#006994"/><path d="M33,45H29V41H19v4H15a1,1,0,0,0,0,2H33A1,1,0,0,0,33,45Z" style="fill:#006994"/><path d="M39,3a2,2,0,0,0-2-2H11A2,2,0,0,0,9,3V7H39ZM13,5a1,1,0,0,1,0-2A1,1,0,0,1,13,5Zm4,0a1,1,0,0,1,0-2A1,1,0,0,1,17,5Zm4,0a1,1,0,0,1,0-2A1,1,0,0,1,21,5Z" style="fill:#006994"/><path d="M39,9H9V31H39ZM20.71,23.29A1,1,0,0,1,20,25c-.59,0-.45,0-4.71-4.29a1,1,0,0,1,0-1.42l4-4a1,1,0,0,1,1.42,1.42L17.41,20ZM26,15.2l-2,10a1,1,0,0,1-2-.4l2-10A1,1,0,0,1,26,15.2Zm6.73,5.51C28.41,25,28.58,25,28,25a1,1,0,0,1-.71-1.71L30.59,20l-3.3-3.29a1,1,0,0,1,1.42-1.42l4,4A1,1,0,0,1,32.71,20.71Z" style="fill:#006994"/></g></svg>