<svg id="Layer_1" data-name="Layer 1" xmlns="http://www.w3.org/2000/svg" viewBox="0 0 246.2 220.68"><defs><style>.cls-1{fill:#372b72;}.cls-2{fill:#e7e8e9;}.cls-3{fill:#fff;}.cls-4{fill:#25aee4;}.cls-5{fill:#1599d6;}.cls-6{fill:#d1d2d4;}.cls-7{fill:#eb5b9c;}.cls-8{fill:#e1408f;}.cls-9{fill:#186ea1;}.cls-10{fill:#fede3a;}.cls-11{fill:#f7cb13;}.cls-12{fill:#e7ad26;}.cls-13{fill:#e23f8f;}.cls-14{fill:#a82a74;}</style></defs><path class="cls-1" d="M245.8,166.72l-14-14V55.14a9,9,0,0,0-8.95-9H194a62.06,62.06,0,0,0-91.36,0H22.42a9,9,0,0,0-9,9V80.26a37.06,37.06,0,0,0,0,53.17v46a9,9,0,0,0,9,9h79.12a67.73,67.73,0,0,1-9.13,31.06l-1.31,2.25H83.71a7.34,7.34,0,1,0,0,14.67h77.81a7.34,7.34,0,0,0,0-14.67h-7.39l-1.31-2.25a67.75,67.75,0,0,1-9.14-31.06h79.13a8.88,8.88,0,0,0,5.15-1.65,9,9,0,0,0,11.49-1l6.35-6.34A9,9,0,0,0,245.8,166.72ZM148.28,42.14a45.85,45.85,0,0,1,18.89,4H129.39A45.85,45.85,0,0,1,148.28,42.14Z" transform="translate(-2.23 -15.7)"/><rect class="cls-2" x="11.24" y="26.01" width="218.29" height="136.24" rx="6"/><rect class="cls-3" x="11.24" y="20.04" width="218.29" height="136.24" rx="6"/><rect class="cls-4" x="19.57" y="27.31" width="201.38" height="104.42" rx="2"/><path class="cls-5" d="M220.2,43H24.78a3,3,0,0,0-3,3v6a3,3,0,0,1,3-3H220.2a3,3,0,0,1,3,3V46A3,3,0,0,0,220.2,43Z" transform="translate(-2.23 -15.7)"/><path class="cls-6" d="M154.13,211.27h-63L92.41,209A67.74,67.74,0,0,0,101.54,178h42.14A67.75,67.75,0,0,0,152.82,209Z" transform="translate(-2.23 -15.7)"/><path class="cls-2" d="M161.52,225.94H83.71a7.34,7.34,0,0,1-7.34-7.34h0a7.34,7.34,0,0,1,7.34-7.33h77.81a7.33,7.33,0,0,1,7.33,7.33h0A7.34,7.34,0,0,1,161.52,225.94Z" transform="translate(-2.23 -15.7)"/><path class="cls-6" d="M161.52,218.6H83.71a7.31,7.31,0,0,1-6.35-3.66,7.21,7.21,0,0,0-1,3.66,7.34,7.34,0,0,0,7.34,7.34h77.81a7.34,7.34,0,0,0,7.33-7.34,7.21,7.21,0,0,0-1-3.66A7.33,7.33,0,0,1,161.52,218.6Z" transform="translate(-2.23 -15.7)"/><path class="cls-3" d="M92.41,209l-1.31,2.25h63L152.82,209a67.89,67.89,0,0,1-6.51-15.19H98.91A67.4,67.4,0,0,1,92.41,209Z" transform="translate(-2.23 -15.7)"/><rect class="cls-3" x="186.11" y="111.06" width="17.95" height="27.11" transform="translate(-33.2 158.74) rotate(-45)"/><rect class="cls-6" x="188.02" y="115.65" width="4.96" height="27.11" transform="translate(-37.8 156.84) rotate(-45)"/><rect class="cls-7" x="208.87" y="123.15" width="26.93" height="57.4" rx="8.98" transform="translate(-44.48 185.99) rotate(-45)"/><path class="cls-8" d="M232.63,169.45l-27.9-27.89a9,9,0,0,1,0-12.7l.51-.5,0,0-6.35,6.34a9,9,0,0,0,0,12.7l27.9,27.89a9,9,0,0,0,12.69,0l5.85-5.84A9,9,0,0,1,232.63,169.45Z" transform="translate(-2.23 -15.7)"/><path class="cls-3" d="M148.28,15.7a62.1,62.1,0,1,0,62.1,62.1A62.1,62.1,0,0,0,148.28,15.7Zm0,108.21A46.11,46.11,0,1,1,194.39,77.8,46.11,46.11,0,0,1,148.28,123.91Z" transform="translate(-2.23 -15.7)"/><path class="cls-6" d="M148.28,24.68A53.13,53.13,0,1,0,201.41,77.8,53.13,53.13,0,0,0,148.28,24.68Zm0,99.23A46.11,46.11,0,1,1,194.39,77.8,46.11,46.11,0,0,1,148.28,123.91Z" transform="translate(-2.23 -15.7)"/><circle class="cls-7" cx="146.05" cy="62.1" r="46.11"/><path class="cls-9" d="M194.38,77.81a46.11,46.11,0,0,1-88.62,17.85c-.47-1.11-.89-2.25-1.28-3.4-.43-1.31-.81-2.64-1.12-4a46.84,46.84,0,0,1-1.19-10.46c0-.78,0-1.55.06-2.31a41.25,41.25,0,0,1,.49-4.76,42.51,42.51,0,0,1,1.09-5.18,46.11,46.11,0,0,1,90.57,12.25Z" transform="translate(-2.23 -15.7)"/><path class="cls-10" d="M177.36,74.18a3.57,3.57,0,0,1-.38,1.66h0a3,3,0,0,1-.7,1l-3.67,3.6-8.53,8.38-2.91,2.85L158.76,94l-6.92,6.79-4.13,4a3.68,3.68,0,0,1-5.1.05l-3.81-3.58L123.66,87.1,121,84.58l-2.15,1.57-13.07,9.51c-.47-1.11-.89-2.25-1.28-3.4-.43-1.31-.81-2.64-1.12-4l12.77-9.33h0l.23-.15,2.68-2a3.7,3.7,0,0,1,4.73.28l3.66,3.43,1.41,1.33,13.79,12.93,2.43,2.29,2.49-2.45,5.64-5.53,2.39-2.33,2.9-2.85L168,74.62l1.13-1.12,2-2a3.7,3.7,0,0,1,5.22.06,2.61,2.61,0,0,1,.34.42,3.94,3.94,0,0,1,.32.51,3.33,3.33,0,0,1,.16.4c0,.08.06.14.08.21a.23.23,0,0,1,0,.07,3,3,0,0,1,.09.41A3.43,3.43,0,0,1,177.36,74.18Z" transform="translate(-2.23 -15.7)"/><path class="cls-11" d="M177.36,74.18a3.57,3.57,0,0,1-.38,1.66h0a3,3,0,0,1-.7,1l-3.67,3.6-8.53,8.38-2.91,2.85L158.76,94l-6.92,6.79-4.13,4a3.68,3.68,0,0,1-5.1.05l-3.81-3.58L123.66,87.1,121,84.58l-2.15,1.57-13.07,9.51c-.47-1.11-.89-2.25-1.28-3.4l12-8.77,2.32-1.7L121,80.24l2.67,2.51,3.06,2.88,12.84,12,3.06,2.88a3.68,3.68,0,0,0,5.1-.06l3.18-3.11,5.55-5.43,2.37-2.35,2.91-2.85,8.13-8,2.77-2.72,3.64-3.58a3.47,3.47,0,0,0,.4-.46,3.94,3.94,0,0,1,.32.51,3.33,3.33,0,0,1,.16.4c0,.08.06.14.08.21a.23.23,0,0,1,0,.07,3,3,0,0,1,.09.41A3.43,3.43,0,0,1,177.36,74.18Z" transform="translate(-2.23 -15.7)"/><path class="cls-7" d="M177.36,102.21a3.68,3.68,0,0,1-.22,1.26,3.87,3.87,0,0,1-.69,1.14c-.07.09-.16.18-.23.26a3.71,3.71,0,0,1-5,.09L168,102.11,158.76,94l-2.32-2-3.24-2.85-28.39-25L122.42,62l-2.84,1.89L102.23,75.5a41.25,41.25,0,0,1,.49-4.76,42.51,42.51,0,0,1,1.09-5.18l12.11-8.07.84-.56,3.92-2.62a3.71,3.71,0,0,1,4.49.3L128,57.09l1,.85,29.53,26,3.23,2.83,2.34,2.06,8.86,7.79,3.21,2.82a3.71,3.71,0,0,1,.5.55,2.12,2.12,0,0,1,.24.37l.17.3a.67.67,0,0,0,.06.15,1.43,1.43,0,0,1,.09.27,2.48,2.48,0,0,1,.1.39c0,.12,0,.24.06.36S177.36,102.06,177.36,102.21Z" transform="translate(-2.23 -15.7)"/><path class="cls-8" d="M177.36,102.21a3.45,3.45,0,0,1-.22,1.26,3.87,3.87,0,0,1-.69,1.14c-.07.09-.16.18-.23.26a3.71,3.71,0,0,1-5,.09L168,102.11,158.76,94l-2.32-2-3.24-2.85-28.39-25L122.42,62l-2.84,1.89L102.23,75.5a41.25,41.25,0,0,1,.49-4.76l14.08-9.38,2.7-1.81h0l2.9-1.95,2.45,2.14,2.67,2.36,28.05,24.66,3.22,2.83,2.34,2.06,8.22,7.22,1.88,1.66a3.69,3.69,0,0,0,5.2-.35l.18-.22a2.12,2.12,0,0,1,.24.37l.17.3a.67.67,0,0,0,.06.15,1.43,1.43,0,0,1,.09.27,2.48,2.48,0,0,1,.1.39c0,.12,0,.24.06.36S177.36,102.06,177.36,102.21Z" transform="translate(-2.23 -15.7)"/><circle class="cls-3" cx="120.19" cy="42.35" r="6.53"/><path class="cls-2" d="M122.42,60.23a6.54,6.54,0,0,1-6.16-4.36,6.53,6.53,0,1,0,12.32,0A6.53,6.53,0,0,1,122.42,60.23Z" transform="translate(-2.23 -15.7)"/><circle class="cls-3" cx="120.19" cy="64.99" r="6.53"/><path class="cls-2" d="M122.42,82.87a6.55,6.55,0,0,1-6.16-4.35,6.53,6.53,0,1,0,12.32,0A6.54,6.54,0,0,1,122.42,82.87Z" transform="translate(-2.23 -15.7)"/><circle class="cls-3" cx="143.08" cy="85.05" r="6.53"/><path class="cls-2" d="M145.31,102.93a6.55,6.55,0,0,1-6.16-4.35,6.53,6.53,0,1,0,12.32,0A6.54,6.54,0,0,1,145.31,102.93Z" transform="translate(-2.23 -15.7)"/><circle class="cls-3" cx="172.25" cy="87.23" r="6.53"/><path class="cls-2" d="M174.48,105.11a6.54,6.54,0,0,1-6.16-4.36,6.53,6.53,0,1,0,12.32,0A6.54,6.54,0,0,1,174.48,105.11Z" transform="translate(-2.23 -15.7)"/><circle class="cls-3" cx="172.25" cy="58.46" r="6.53"/><path class="cls-2" d="M174.48,76.34A6.54,6.54,0,0,1,168.32,72a6.61,6.61,0,0,0-.37,2.18,6.53,6.53,0,1,0,13.06,0,6.61,6.61,0,0,0-.37-2.18A6.54,6.54,0,0,1,174.48,76.34Z" transform="translate(-2.23 -15.7)"/><circle class="cls-10" cx="37.08" cy="80.7" r="37.08"/><path class="cls-12" d="M56.39,77.84a1.53,1.53,0,0,0-1.47-1.11H23.7a1.53,1.53,0,0,0-1.47,1.11l-2.76,9.43v6.84A2.83,2.83,0,0,0,22,96.92v21.81a1.54,1.54,0,0,0,1.54,1.54h31.5a1.54,1.54,0,0,0,1.54-1.54V96.92a2.83,2.83,0,0,0,2.55-2.81V87.27Z" transform="translate(-2.23 -15.7)"/><path class="cls-6" d="M19.79,75.08H54.37a0,0,0,0,1,0,0v25.47a1,1,0,0,1-1,1H20.83a1,1,0,0,1-1-1V75.08A0,0,0,0,1,19.79,75.08Z"/><path class="cls-3" d="M19.79,72H54.37a0,0,0,0,1,0,0V97.48a1,1,0,0,1-1,1H20.83a1,1,0,0,1-1-1V72A0,0,0,0,1,19.79,72Z"/><path class="cls-6" d="M22,96l.29,0a2.84,2.84,0,0,0,2.83-2.84,2.84,2.84,0,1,0,5.67,0,2.84,2.84,0,1,0,5.67,0,2.84,2.84,0,1,0,5.67,0,2.83,2.83,0,1,0,5.66,0,2.84,2.84,0,1,0,5.67,0A2.84,2.84,0,0,0,56.32,96l.28,0V87.71H22Z" transform="translate(-2.23 -15.7)"/><path class="cls-13" d="M22.31,94h0a2.84,2.84,0,0,1-2.84-2.83V84.29h5.67v6.84A2.83,2.83,0,0,1,22.31,94Z" transform="translate(-2.23 -15.7)"/><path class="cls-14" d="M28,94h0a2.83,2.83,0,0,1-2.83-2.83V84.29h5.67v6.84A2.84,2.84,0,0,1,28,94Z" transform="translate(-2.23 -15.7)"/><path class="cls-13" d="M33.64,94h0a2.83,2.83,0,0,1-2.83-2.83V84.29h5.67v6.84A2.84,2.84,0,0,1,33.64,94Z" transform="translate(-2.23 -15.7)"/><path class="cls-14" d="M39.31,94h0a2.83,2.83,0,0,1-2.83-2.83V84.29h5.67v6.84A2.84,2.84,0,0,1,39.31,94Z" transform="translate(-2.23 -15.7)"/><path class="cls-13" d="M45,94h0a2.83,2.83,0,0,1-2.83-2.83V84.29h5.66v6.84A2.83,2.83,0,0,1,45,94Z" transform="translate(-2.23 -15.7)"/><path class="cls-14" d="M50.65,94h0a2.84,2.84,0,0,1-2.84-2.83V84.29h5.67v6.84A2.83,2.83,0,0,1,50.65,94Z" transform="translate(-2.23 -15.7)"/><path class="cls-13" d="M56.32,94h0a2.84,2.84,0,0,1-2.84-2.83V84.29h5.67v6.84A2.83,2.83,0,0,1,56.32,94Z" transform="translate(-2.23 -15.7)"/><path class="cls-7" d="M27.19,73.75H23.7a1.53,1.53,0,0,0-1.47,1.11l-2.76,9.43h5.67Z" transform="translate(-2.23 -15.7)"/><polygon class="cls-8" points="29.61 58.05 24.97 58.05 22.91 68.58 28.58 68.58 29.61 58.05"/><polygon class="cls-7" points="34.25 58.05 29.61 58.05 28.58 68.58 34.25 68.58 34.25 58.05"/><rect class="cls-8" x="34.25" y="58.05" width="5.67" height="10.54"/><polygon class="cls-7" points="44.56 58.05 39.92 58.05 39.92 68.58 45.59 68.58 44.56 58.05"/><polygon class="cls-8" points="49.2 58.05 44.56 58.05 45.59 68.58 51.25 68.58 49.2 58.05"/><path class="cls-7" d="M54.92,73.75H51.43l2,10.54h5.67l-2.76-9.43A1.53,1.53,0,0,0,54.92,73.75Z" transform="translate(-2.23 -15.7)"/><path class="cls-7" d="M23.61,81.27h8.81a1,1,0,0,1,1,1V98.51a0,0,0,0,1,0,0H22.58a0,0,0,0,1,0,0V82.3A1,1,0,0,1,23.61,81.27Z"/><path class="cls-13" d="M24,82.3h8a.47.47,0,0,1,.47.47V97.45a0,0,0,0,1,0,0H23.56a0,0,0,0,1,0,0V82.77A.47.47,0,0,1,24,82.3Z"/><rect class="cls-7" x="36.33" y="81.27" width="15.25" height="8.89" rx="1.03"/><path class="cls-13" d="M52.27,97H40.1a1.54,1.54,0,0,0-1.54,1.54v1.64a1.54,1.54,0,0,1,1.54-1.54H52.27a1.54,1.54,0,0,1,1.54,1.54V98.51A1.54,1.54,0,0,0,52.27,97Z" transform="translate(-2.23 -15.7)"/><rect class="cls-7" x="23.56" y="88.9" width="8.91" height="2.6"/><path class="cls-3" d="M34.3,105.87a1,1,0,1,1-1-1A1,1,0,0,1,34.3,105.87Z" transform="translate(-2.23 -15.7)"/><path class="cls-2" d="M33.33,106.22a1,1,0,0,1-.91-.66,1.07,1.07,0,0,0-.06.31,1,1,0,0,0,1.94,0,.82.82,0,0,0-.07-.31A1,1,0,0,1,33.33,106.22Z" transform="translate(-2.23 -15.7)"/></svg>