<svg id="Layer_1" data-name="Layer 1" xmlns="http://www.w3.org/2000/svg" viewBox="0 0 229.92 243.11"><defs><style>.cls-1{fill:#372b72;}.cls-2{fill:#fff;}.cls-3{fill:#bdbec0;}.cls-4{fill:#d1d2d4;}.cls-5{fill:#25aee4;}.cls-6{fill:#1599d6;}.cls-7{fill:#37bde2;}.cls-8{fill:#e1408f;}.cls-9{fill:#eb5b9c;}.cls-10{fill:#f7cb13;}.cls-11{fill:#fede3a;}</style></defs><rect class="cls-1" y="13.19" width="229.92" height="229.92" rx="21.78"/><rect class="cls-2" width="229.92" height="229.92" rx="11.56"/><path class="cls-3" d="M217.62,218.8H31.26A21.78,21.78,0,0,1,9.48,197v14.52a21.78,21.78,0,0,0,21.78,21.78H217.62a21.78,21.78,0,0,0,21.78-21.78V197A21.78,21.78,0,0,1,217.62,218.8Z" transform="translate(-9.48 -3.41)"/><path class="cls-4" d="M204.79,170.34a5.18,5.18,0,0,0-1.17-1.75l-52.24-52.25,51.47-51.47a6.1,6.1,0,0,0,0-8.62L198.61,52l-3.4-3.4L191,44.37a6.1,6.1,0,0,0-8.62,0L130.88,95.84,78.63,43.6a5.28,5.28,0,0,0-5.73-1.16,5.19,5.19,0,0,0-1.75,1.16l-3.07,3.07-2.69,2.69-14.5,14.5a5.3,5.3,0,0,0,0,7.48l8.22,8.22h0l6.63,6.62h0l37.4,37.41L63,163.75l-8.16,20.93h0l-3.37,8.66a1.88,1.88,0,0,0,2.44,2.44l8.66-3.37h0l20.93-8.16,40.17-40.17L135.56,156h0l6.62,6.63h0l33.7,33.7a5.3,5.3,0,0,0,7.48,0l14.5-14.49,5.14-5.15.62-.62a5.27,5.27,0,0,0,1.17-1.75A5.37,5.37,0,0,0,204.79,170.34Z" transform="translate(-9.48 -3.41)"/><rect class="cls-5" x="107.64" y="15.4" width="39.23" height="187.34" rx="2.81" transform="translate(-49.34 118.52) rotate(-45)"/><path class="cls-6" d="M71.15,32.71,65,38.85a5.3,5.3,0,0,1,7.48,0l125,125a5.3,5.3,0,0,1,0,7.48l6.14-6.14a5.28,5.28,0,0,0,0-7.48l-125-125A5.28,5.28,0,0,0,71.15,32.71Z" transform="translate(-9.48 -3.41)"/><rect class="cls-7" x="130.56" y="8.47" width="7.27" height="187.34" transform="translate(-42.4 121.4) rotate(-45)"/><path class="cls-7" d="M65.74,75.29l-6.63-6.62,7.7-7.7a4.7,4.7,0,0,1,6.62,0h0a4.69,4.69,0,0,1,0,6.63Z" transform="translate(-9.48 -3.41)"/><path class="cls-7" d="M91.22,100.77l-6.63-6.62,7.7-7.69a4.68,4.68,0,0,1,6.62,0h0a4.68,4.68,0,0,1,0,6.62Z" transform="translate(-9.48 -3.41)"/><path class="cls-7" d="M116.7,126.25l-6.62-6.62,7.69-7.69a4.68,4.68,0,0,1,6.62,0h0a4.68,4.68,0,0,1,0,6.62Z" transform="translate(-9.48 -3.41)"/><path class="cls-7" d="M142.18,151.74l-6.62-6.63,7.69-7.69a4.69,4.69,0,0,1,6.63,0h0a4.7,4.7,0,0,1,0,6.62Z" transform="translate(-9.48 -3.41)"/><path class="cls-7" d="M167.66,177.22,161,170.59l7.69-7.69a4.69,4.69,0,0,1,6.63,0h0a4.68,4.68,0,0,1,0,6.62Z" transform="translate(-9.48 -3.41)"/><path class="cls-8" d="M83.47,173.36,63,152.86,182.35,33.48a6.1,6.1,0,0,1,8.62,0l11.88,11.88a6.1,6.1,0,0,1,0,8.62Z" transform="translate(-9.48 -3.41)"/><path class="cls-9" d="M77.79,167.69l-9.15-9.15L189.46,37.72a4.06,4.06,0,0,1,5.75,0l3.4,3.4a4.06,4.06,0,0,1,0,5.75Z" transform="translate(-9.48 -3.41)"/><path class="cls-10" d="M83.47,173.35l-20.94,8.17-8.65,3.37a1.71,1.71,0,0,1-1.47-.06s0,0,0,0a2,2,0,0,1-.86-.83s0,0,0,0a1.87,1.87,0,0,1-.08-1.4.15.15,0,0,1,0-.09l3.39-8.65L63,152.87l5.4,5.39L78.06,168Z" transform="translate(-9.48 -3.41)"/><path class="cls-11" d="M78.06,168,60.5,179.48l-8.13,5.33a2,2,0,0,1-.86-.83l5.35-8.14,11.51-17.58Z" transform="translate(-9.48 -3.41)"/><path class="cls-8" d="M62.53,181.52l-8.65,3.37a1.71,1.71,0,0,1-1.47-.06s0,0,0,0a2,2,0,0,1-.86-.83s0,0,0,0a1.87,1.87,0,0,1-.08-1.4.15.15,0,0,1,0-.09l3.38-8.67Z" transform="translate(-9.48 -3.41)"/><path class="cls-9" d="M60.61,179.59l-8.2,5.24s0,0,0,0a2,2,0,0,1-.86-.83s0,0,0,0l5.26-8.22Z" transform="translate(-9.48 -3.41)"/></svg>