<svg xmlns="http://www.w3.org/2000/svg" viewBox="0 0 48 48"><title>Website Design</title><g id="Website_Design" data-name="Website Design"><path d="M26,24a2,2,0,1,1,1.49,1.93l-2.3,2.3,7.28-1.82,1-3.14-4.78-4.78-3.14,1-1.82,7.28C26.61,24,26,24.78,26,24Z" style="fill:#006994"/><rect x="31.95" y="15.04" width="4" height="6.01" transform="translate(-2.82 29.29) rotate(-45)" style="fill:#006994"/><path d="M1,46H47V10H1ZM20.94,30c3-12.08,2.72-11.91,3.5-12.18l4-1.34,4.08-4.08a1,1,0,0,1,1.41,0l5.66,5.66a1,1,0,0,1,0,1.41l-4.08,4.08c-1.44,4.31-1.35,4.5-2,4.67-12.55,3.14-11.69,3.12-12.31,2.5A.92.92,0,0,1,20.94,30Zm-10.23-2.7L13.39,30A10,10,0,0,1,15.1,23.3a2,2,0,1,1,1.54,1.27A8,8,0,0,0,16.46,33c.37.38.23.3.52.3a2,2,0,0,1,2,2.19c1.54,1.54,5.64,2.19,8.78.12A2,2,0,1,1,29,37.2a10,10,0,0,1-6.67,1.71l3.39,3.38A1,1,0,0,1,25,44c-.6,0-.28.14-7-6.57-.62-.41-.17-.1-1.05-.1a2,2,0,0,1-1.86-2.7c-.34-.51.31.19-5.81-5.92A1,1,0,0,1,10.71,27.29Z" style="fill:#006994"/><path d="M45,2H3A2,2,0,0,0,1,4V8H47V4A2,2,0,0,0,45,2ZM5,6A1,1,0,0,1,5,4,1,1,0,0,1,5,6ZM9,6A1,1,0,0,1,9,4,1,1,0,0,1,9,6Zm4,0a1,1,0,0,1,0-2A1,1,0,0,1,13,6Z" style="fill:#006994"/></g></svg>