<svg xmlns="http://www.w3.org/2000/svg" viewBox="0 0 48 48"><title>ecommerce smartphone</title><g id="ecommerce_smartphone" data-name="ecommerce smartphone"><path d="M18.88,26h3.25a4,4,0,0,1,7.15-1.28L29.87,20H18.13Z" style="fill:#006994"/><path d="M15.3,40.41a3.89,3.89,0,0,1,3.9-3.91,8.19,8.19,0,0,1,2.8.72V28H18a1,1,0,0,1-1-.88L16.12,20A1,1,0,1,1,16,18h2.5l2.7-3.6a1,1,0,0,1,1.6,1.2L21,18h6l-1.8-2.4a1,1,0,0,1,1.6-1.2L29.5,18H32a1,1,0,0,1,0,2c-.17,0,0-.76-1,7.12A1,1,0,0,1,30,28v2a4,4,0,0,1,2.83,1.18,4,4,0,0,1,4,1c.25-.08.17,2,.17-27.18a4,4,0,0,0-4-4H32V3a4,4,0,0,1-4,4H20a4,4,0,0,1-4-4V1H15a4,4,0,0,0-4,4V41a4,4,0,0,0,4,4h3.58C16.83,43.51,15.3,42.6,15.3,40.41Z" style="fill:#006994"/><path d="M20,5h8a2,2,0,0,0,2-2V1H18V3A2,2,0,0,0,20,5Z" style="fill:#006994"/><path d="M39.41,34.59A2,2,0,0,0,36,36V35a2,2,0,0,0-4,0V34a2,2,0,0,0-4,0V27a2,2,0,0,0-3.41-1.41c-.81.79-.59.54-.59,14.41l-4.2-1.4A1.9,1.9,0,0,0,18,41.83L24,47H40C40,35.38,40.23,35.39,39.41,34.59Z" style="fill:#006994"/></g></svg>