<svg id="Layer_1" data-name="Layer 1" xmlns="http://www.w3.org/2000/svg" viewBox="0 0 246.49 226.55"><defs><style>.cls-1{fill:#372b72;}.cls-2{fill:#e7e8e9;}.cls-3{fill:#fff;}.cls-4{fill:#25aee4;}.cls-5{fill:#1599d6;}.cls-6{fill:#d1d2d4;}.cls-7{fill:#e7ad26;}.cls-8{fill:#fddd3a;}.cls-9{fill:#fbeb40;}.cls-10{fill:#f6ca13;}.cls-11{fill:#e23f8f;}.cls-12{fill:#a82a74;}.cls-13{fill:#eb5b9c;}.cls-14{fill:#e1408f;}</style></defs><path class="cls-1" d="M238.11,24H11.84A10.11,10.11,0,0,0,1.73,34.09V174.46a10.1,10.1,0,0,0,10.11,10.1h89.34a76.5,76.5,0,0,1-10.31,35.08l-1.48,2.54H81a8.28,8.28,0,0,0,0,16.56H168.9a8.28,8.28,0,1,0,0-16.56h-8.34l-1.48-2.54a76.5,76.5,0,0,1-10.31-35.08h89.34a10.11,10.11,0,0,0,10.11-10.1V34.09A10.11,10.11,0,0,0,238.11,24Z" transform="translate(-1.73 -12.19)"/><rect class="cls-2" y="6.74" width="246.49" height="153.84" rx="6"/><rect class="cls-3" width="246.49" height="153.84" rx="6"/><rect class="cls-4" x="9.4" y="8.21" width="227.4" height="117.91" rx="2"/><path class="cls-5" d="M235.16,20.4H14.5a3.37,3.37,0,0,0-3.37,3.37v6.74a3.37,3.37,0,0,1,3.37-3.37H235.16a3.37,3.37,0,0,1,3.37,3.37V23.77A3.37,3.37,0,0,0,235.16,20.4Z" transform="translate(-1.73 -12.19)"/><path class="cls-6" d="M160.56,210.39H89.39l1.48-2.54a76.5,76.5,0,0,0,10.31-35.08h47.59a76.5,76.5,0,0,0,10.31,35.08Z" transform="translate(-1.73 -12.19)"/><path class="cls-2" d="M168.9,227H81a8.28,8.28,0,0,1-8.28-8.28h0A8.28,8.28,0,0,1,81,210.39H168.9a8.29,8.29,0,0,1,8.29,8.28h0A8.28,8.28,0,0,1,168.9,227Z" transform="translate(-1.73 -12.19)"/><path class="cls-6" d="M168.9,218.67H81a8.27,8.27,0,0,1-7.17-4.14,8.19,8.19,0,0,0-1.11,4.14A8.28,8.28,0,0,0,81,227H168.9a8.28,8.28,0,0,0,7.18-12.42A8.27,8.27,0,0,1,168.9,218.67Z" transform="translate(-1.73 -12.19)"/><path class="cls-3" d="M90.87,207.85l-1.48,2.54h71.17l-1.48-2.54a76.12,76.12,0,0,1-7.34-17.15H98.21A76.12,76.12,0,0,1,90.87,207.85Z" transform="translate(-1.73 -12.19)"/><path class="cls-5" d="M211.28,83.3a2.26,2.26,0,0,0-.09-.53,1.91,1.91,0,0,0-.16-.32,2.92,2.92,0,0,0-1.84-1.54l-6.92-1.79L205,74.49a2.78,2.78,0,0,0,.39-1.41.22.22,0,0,0,0-.08V69.51s0-.05,0-.07a.41.41,0,0,0,0-.11v-.18a.14.14,0,0,1,0-.06,2.88,2.88,0,0,0-.18-.77c0-.07,0-.14-.06-.21a2.82,2.82,0,0,0-.54-.8s0,0,0,0l-4.64-4.65a2.91,2.91,0,0,0-2-.81,2.87,2.87,0,0,0-1.53.37l-7.28,4.28c-.24-.11-.49-.21-.74-.3L186.26,58a2.9,2.9,0,0,0-1.62-1.88,1.83,1.83,0,0,0-.24-.13,3.63,3.63,0,0,0-.59-.1c-.12,0-.23-.06-.36-.06h-6.56a2.93,2.93,0,0,0-.41.07,3.2,3.2,0,0,0-.54.09c-.11,0-.2.12-.31.17A2.82,2.82,0,0,0,174.09,58L172,66.16c-.25.09-.49.19-.74.3L164,62.18a3,3,0,0,0-3.52.44l-4.64,4.65,0,0a2.82,2.82,0,0,0-.54.8,1.66,1.66,0,0,0-.06.21,2.56,2.56,0,0,0-.19.77s0,0,0,.06a1.09,1.09,0,0,0,0,.18v3.75a2.88,2.88,0,0,0,.39,1.41l2.73,4.63-6.92,1.79a2.86,2.86,0,0,0-1.77,1.41,2.81,2.81,0,0,0-.4,1.39v6.57h0V94a2.89,2.89,0,0,0,2.17,2.8l6.92,1.79-2.73,4.63s0,0,0,.05a3,3,0,0,0-.28.76c0,.11,0,.22-.05.33s0,.21,0,.32v3.6a2.9,2.9,0,0,0,.84,2.17l4.64,4.64a2.9,2.9,0,0,0,3.52.44l7.27-4.28.74.31,2.12,8.17a2.89,2.89,0,0,0,2.8,2.17h6.56a2.9,2.9,0,0,0,2.81-2.17l2.11-8.17.74-.31,7.28,4.28a2.89,2.89,0,0,0,3.51-.44l4.64-4.64a2.86,2.86,0,0,0,.84-2.17v-3.43a.16.16,0,0,0,0-.07s0,0,0-.07v0c0-.11,0-.21,0-.32s0-.22,0-.33a2.71,2.71,0,0,0-.29-.76s0,0,0-.05l-2.72-4.63,6.91-1.79a2.89,2.89,0,0,0,2.17-2.8V83.71h0A2.93,2.93,0,0,0,211.28,83.3ZM190.51,87a10.34,10.34,0,1,1-10.34-10.33A10.35,10.35,0,0,1,190.51,87Z" transform="translate(-1.73 -12.19)"/><path class="cls-5" d="M122.12,40.15H56.66a3.24,3.24,0,0,0-3.1,2.33L47.79,62.25V76.6a5.93,5.93,0,0,0,5.34,5.88v45.75a3.23,3.23,0,0,0,3.23,3.22h66.06a3.23,3.23,0,0,0,3.23-3.22V82.48A5.93,5.93,0,0,0,131,76.6V62.25l-5.78-19.77A3.22,3.22,0,0,0,122.12,40.15Z" transform="translate(-1.73 -12.19)"/><path class="cls-7" d="M205.38,64.46a.16.16,0,0,0,0-.07.4.4,0,0,0,0-.11v-.19a2.88,2.88,0,0,0-.84-1.88l-4.64-4.64a2.88,2.88,0,0,0-3.51-.44l-7.28,4.28-.74-.31-2.11-8.17a2.9,2.9,0,0,0-2.81-2.17h-6.56a2.89,2.89,0,0,0-2.8,2.17L172,61.1l-.74.31L164,57.13a2.89,2.89,0,0,0-3.52.44l-4.64,4.64a2.92,2.92,0,0,0-.83,1.88,1.21,1.21,0,0,0,0,.19V68a2.89,2.89,0,0,0,.39,1.42l2.73,4.63-6.92,1.79a2.89,2.89,0,0,0-2.17,2.8V88.94a2.9,2.9,0,0,0,2.17,2.8l6.92,1.79-2.72,4.63a2.84,2.84,0,0,0-.4,1.46v3.59a2.9,2.9,0,0,0,.84,2.17l4.64,4.64a2.89,2.89,0,0,0,3.52.45l7.27-4.28c.25.11.49.21.74.3l2.12,8.18a2.9,2.9,0,0,0,2.8,2.17h6.56a2.91,2.91,0,0,0,2.81-2.17l2.11-8.18c.25-.09.5-.19.74-.3l7.28,4.28a2.88,2.88,0,0,0,3.51-.45l4.64-4.64a2.86,2.86,0,0,0,.84-2.17V99.79s0-.05,0-.07,0,0,0-.07v0a2.83,2.83,0,0,0-.39-1.46l-2.73-4.63,6.92-1.79a2.9,2.9,0,0,0,2.17-2.8V78.66a2.89,2.89,0,0,0-2.16-2.8l-6.92-1.79L205,69.44a2.79,2.79,0,0,0,.39-1.42s0,0,0-.07ZM180.17,92.28a10.34,10.34,0,1,1,10.34-10.34A10.35,10.35,0,0,1,180.17,92.28Z" transform="translate(-1.73 -12.19)"/><path class="cls-8" d="M180.17,59.55a22.4,22.4,0,1,0,22.4,22.39A22.38,22.38,0,0,0,180.17,59.55Zm0,32.68a10.29,10.29,0,1,1,10.29-10.29A10.29,10.29,0,0,1,180.17,92.23Z" transform="translate(-1.73 -12.19)"/><path class="cls-8" d="M209.18,75.86l-8.59-2.23-.24,0c.05-.06.09-.13.14-.2l4.5-7.65a2.91,2.91,0,0,0-.45-3.52l-4.64-4.64a2.91,2.91,0,0,0-3.51-.45l-7.65,4.51-.21.13a2,2,0,0,0-.05-.24l-2.22-8.59a2.91,2.91,0,0,0-2.81-2.17h-6.56a2.89,2.89,0,0,0-2.8,2.17l-2.23,8.59c0,.08,0,.16-.05.24l-.2-.13L164,57.12a2.92,2.92,0,0,0-3.52.45l-4.64,4.64a2.9,2.9,0,0,0-.44,3.52l4.5,7.65.13.2-.24,0-8.59,2.23a2.89,2.89,0,0,0-2.17,2.8v6.56A2.91,2.91,0,0,0,151.16,88l8.59,2.22.24,0c0,.07-.09.13-.13.21l-4.5,7.64a2.9,2.9,0,0,0,.44,3.52l4.64,4.64a2.91,2.91,0,0,0,3.52.45l7.65-4.5.2-.14c0,.08,0,.16.05.24l2.23,8.59a2.89,2.89,0,0,0,2.8,2.17h6.56a2.91,2.91,0,0,0,2.81-2.17l2.22-8.59a2,2,0,0,0,.05-.24l.21.14,7.65,4.5a2.89,2.89,0,0,0,3.51-.45l4.64-4.64a2.9,2.9,0,0,0,.45-3.52l-4.5-7.64-.14-.21.24,0L209.18,88a2.91,2.91,0,0,0,2.17-2.81V78.66A2.89,2.89,0,0,0,209.18,75.86ZM196,89.93l-7.79,7.78a2.92,2.92,0,0,0-.81,1.56,2.89,2.89,0,0,0-1.67-.53h-11a2.89,2.89,0,0,0-1.68.53,2.9,2.9,0,0,0-.8-1.56l-7.79-7.78a2.88,2.88,0,0,0-1.56-.81,2.89,2.89,0,0,0,.53-1.67v-11a2.89,2.89,0,0,0-.53-1.68,2.87,2.87,0,0,0,1.56-.8l7.79-7.79a2.87,2.87,0,0,0,.8-1.56,2.89,2.89,0,0,0,1.68.53h11a2.89,2.89,0,0,0,1.67-.53,2.88,2.88,0,0,0,.81,1.56L196,74a2.84,2.84,0,0,0,1.55.8,2.89,2.89,0,0,0-.53,1.68v11a2.89,2.89,0,0,0,.53,1.67A2.85,2.85,0,0,0,196,89.93Z" transform="translate(-1.73 -12.19)"/><path class="cls-9" d="M180.17,100.69a18.75,18.75,0,1,1,18.75-18.75A18.77,18.77,0,0,1,180.17,100.69Zm0-34.56A15.82,15.82,0,1,0,196,81.94,15.82,15.82,0,0,0,180.17,66.13Z" transform="translate(-1.73 -12.19)"/><path class="cls-10" d="M180.17,97.76A15.82,15.82,0,1,1,196,81.94,15.83,15.83,0,0,1,180.17,97.76Zm0-26.15a10.34,10.34,0,1,0,10.34,10.33A10.34,10.34,0,0,0,180.17,71.61Z" transform="translate(-1.73 -12.19)"/><path class="cls-6" d="M51.4,58.63h72.52a0,0,0,0,1,0,0v53.66a1.92,1.92,0,0,1-1.92,1.92H53.32a1.92,1.92,0,0,1-1.92-1.92V58.63A0,0,0,0,1,51.4,58.63Z"/><path class="cls-3" d="M51.4,52.18h72.52a0,0,0,0,1,0,0v53.66a1.92,1.92,0,0,1-1.92,1.92H53.32a1.92,1.92,0,0,1-1.92-1.92V52.18A0,0,0,0,1,51.4,52.18Z"/><path class="cls-6" d="M53.13,81.76q.3,0,.6,0a5.94,5.94,0,0,0,5.94-5.94,5.95,5.95,0,0,0,11.89,0,5.95,5.95,0,0,0,11.89,0,5.94,5.94,0,0,0,11.88,0,5.95,5.95,0,0,0,11.89,0,5.94,5.94,0,0,0,11.88,0,6,6,0,0,0,6,5.94q.3,0,.6,0V64.37H53.13Z" transform="translate(-1.73 -12.19)"/><path class="cls-11" d="M53.73,77.49h0a5.94,5.94,0,0,1-5.94-5.95V57.19H59.67V71.54A5.94,5.94,0,0,1,53.73,77.49Z" transform="translate(-1.73 -12.19)"/><path class="cls-12" d="M65.62,77.49h0a6,6,0,0,1-6-5.95V57.19H71.56V71.54A5.94,5.94,0,0,1,65.62,77.49Z" transform="translate(-1.73 -12.19)"/><path class="cls-11" d="M77.5,77.49h0a5.94,5.94,0,0,1-5.94-5.95V57.19H83.45V71.54A6,6,0,0,1,77.5,77.49Z" transform="translate(-1.73 -12.19)"/><path class="cls-12" d="M89.39,77.49h0a5.94,5.94,0,0,1-5.94-5.95V57.19H95.33V71.54A5.94,5.94,0,0,1,89.39,77.49Z" transform="translate(-1.73 -12.19)"/><path class="cls-11" d="M101.28,77.49h0a6,6,0,0,1-6-5.95V57.19h11.89V71.54A5.94,5.94,0,0,1,101.28,77.49Z" transform="translate(-1.73 -12.19)"/><path class="cls-12" d="M113.16,77.49h0a5.94,5.94,0,0,1-5.94-5.95V57.19H119.1V71.54A5.94,5.94,0,0,1,113.16,77.49Z" transform="translate(-1.73 -12.19)"/><path class="cls-11" d="M125.05,77.49h0a6,6,0,0,1-6-5.95V57.19H131V71.54A5.94,5.94,0,0,1,125.05,77.49Z" transform="translate(-1.73 -12.19)"/><path class="cls-13" d="M64,35.1H56.66a3.25,3.25,0,0,0-3.1,2.32L47.79,57.19H59.67Z" transform="translate(-1.73 -12.19)"/><polygon class="cls-14" points="71.98 22.91 62.25 22.91 57.95 45 69.83 45 71.98 22.91"/><polygon class="cls-13" points="81.72 22.91 71.98 22.91 69.83 45 81.72 45 81.72 22.91"/><rect class="cls-14" x="81.72" y="22.91" width="11.89" height="22.09"/><polygon class="cls-13" points="103.34 22.91 93.6 22.91 93.6 45 105.49 45 103.34 22.91"/><polygon class="cls-14" points="113.07 22.91 103.34 22.91 105.49 45 117.38 45 113.07 22.91"/><path class="cls-13" d="M122.12,35.1H114.8l4.3,22.09H131l-5.78-19.77A3.23,3.23,0,0,0,122.12,35.1Z" transform="translate(-1.73 -12.19)"/><path class="cls-13" d="M59.17,71.61h19a1.92,1.92,0,0,1,1.92,1.92v34.23a0,0,0,0,1,0,0H57.25a0,0,0,0,1,0,0V73.52A1.92,1.92,0,0,1,59.17,71.61Z"/><path class="cls-11" d="M60.17,73.77h17a.87.87,0,0,1,.87.87v30.9a0,0,0,0,1,0,0H59.31a0,0,0,0,1,0,0V74.64A.87.87,0,0,1,60.17,73.77Z"/><rect class="cls-13" x="86.08" y="71.61" width="31.99" height="18.65" rx="1.92"/><path class="cls-11" d="M116.57,83.8H91A3.23,3.23,0,0,0,87.81,87v3.44A3.23,3.23,0,0,1,91,87.24h25.53a3.23,3.23,0,0,1,3.23,3.23V87A3.23,3.23,0,0,0,116.57,83.8Z" transform="translate(-1.73 -12.19)"/><rect class="cls-13" x="59.31" y="87.6" width="18.69" height="5.45"/><path class="cls-3" d="M78.87,102.44a2,2,0,1,1-2-2A2,2,0,0,1,78.87,102.44Z" transform="translate(-1.73 -12.19)"/><path class="cls-2" d="M76.84,103.19a2,2,0,0,1-1.9-1.39,2,2,0,1,0,3.8,0A2,2,0,0,1,76.84,103.19Z" transform="translate(-1.73 -12.19)"/></svg>