<svg id="Layer_1" data-name="Layer 1" xmlns="http://www.w3.org/2000/svg" viewBox="0 0 220.02 238.65"><defs><style>.cls-1{fill:#372b72;}.cls-2{fill:#fff;}.cls-3{fill:#d1d2d4;}.cls-4{fill:#25aee4;}.cls-5{fill:#1599d6;}.cls-6{fill:#fede3a;}.cls-7{fill:#a82a74;}.cls-8{fill:#eb5b9c;}.cls-9{fill:#e1408f;}.cls-10{fill:#f7cb13;}.cls-11{fill:#e7ad26;}.cls-12{fill:#ed6ea7;}</style></defs><path class="cls-1" d="M233.51,41.26H193.29A2.75,2.75,0,0,0,190.54,44V84.23A2.75,2.75,0,0,0,193.29,87H208v72.39a1.37,1.37,0,0,1-1.37,1.37h-33.4V144.48a6.12,6.12,0,0,0-6.11-6.11H166v-5.92h1.15a6.11,6.11,0,0,0,6.11-6.11v-21a6.11,6.11,0,0,0-6.11-6.11H131.65V64.12h14.71a2.75,2.75,0,0,0,2.75-2.75V21.15a2.75,2.75,0,0,0-2.75-2.75H106.14a2.75,2.75,0,0,0-2.75,2.75V61.37a2.75,2.75,0,0,0,2.75,2.75h14.71V99.23H85.38a6.11,6.11,0,0,0-6.11,6.11v21a6.11,6.11,0,0,0,6.11,6.11h1.15v5.92H85.38a6.12,6.12,0,0,0-6.11,6.11v16.26H45.87a1.37,1.37,0,0,1-1.37-1.37V87H59.21A2.75,2.75,0,0,0,62,84.23V44a2.75,2.75,0,0,0-2.75-2.75H19A2.75,2.75,0,0,0,16.24,44V84.23A2.75,2.75,0,0,0,19,87H33.7v72.39a12.19,12.19,0,0,0,12.17,12.18H84.55a7.7,7.7,0,0,0,.83,0h1.15v5.92H85.38a6.12,6.12,0,0,0-6.11,6.11v21a6.12,6.12,0,0,0,6.11,6.11h5.37a35.5,35.5,0,0,0,71,0h5.38a6.12,6.12,0,0,0,6.11-6.11v-21a6.12,6.12,0,0,0-6.11-6.11H166V171.6h1.15a7.7,7.7,0,0,0,.83,0h38.68a12.19,12.19,0,0,0,12.17-12.18V87h14.71a2.75,2.75,0,0,0,2.75-2.75V44A2.75,2.75,0,0,0,233.51,41.26Z" transform="translate(-16.24 -7.59)"/><path class="cls-2" d="M206.63,160.74H45.87A12.18,12.18,0,0,1,33.7,148.57V53.31H44.5v95.26a1.37,1.37,0,0,0,1.37,1.37H206.63a1.38,1.38,0,0,0,1.37-1.37V53.31h10.8v95.26A12.18,12.18,0,0,1,206.63,160.74Z" transform="translate(-16.24 -7.59)"/><path class="cls-3" d="M208,53.31v95.26a1.38,1.38,0,0,1-1.37,1.37H45.87a1.37,1.37,0,0,1-1.37-1.37V53.31H39.1v95.26a6.77,6.77,0,0,0,6.77,6.77H206.63a6.77,6.77,0,0,0,6.77-6.77V53.31Z" transform="translate(-16.24 -7.59)"/><rect class="cls-2" x="104.61" y="22.86" width="10.8" height="124.88"/><rect class="cls-4" y="22.86" width="45.72" height="45.72" rx="1.78"/><path class="cls-5" d="M59.21,70.46H19a2.75,2.75,0,0,1-2.75-2.75v5.71A2.75,2.75,0,0,0,19,76.17H59.21A2.75,2.75,0,0,0,62,73.42V67.71A2.75,2.75,0,0,1,59.21,70.46Z" transform="translate(-16.24 -7.59)"/><path class="cls-6" d="M44.08,48.07H27.21a3.44,3.44,0,1,1,0-6.87H44.08a3.44,3.44,0,1,1,0,6.87Z" transform="translate(-16.24 -7.59)"/><path class="cls-6" d="M51,62.68H27.21a3.44,3.44,0,1,1,0-6.87H51a3.44,3.44,0,0,1,0,6.87Z" transform="translate(-16.24 -7.59)"/><rect class="cls-4" x="174.3" y="22.86" width="45.72" height="45.72" rx="1.78"/><path class="cls-5" d="M233.51,70.46H193.29a2.75,2.75,0,0,1-2.75-2.75v5.71a2.75,2.75,0,0,0,2.75,2.75h40.22a2.75,2.75,0,0,0,2.75-2.75V67.71A2.75,2.75,0,0,1,233.51,70.46Z" transform="translate(-16.24 -7.59)"/><path class="cls-6" d="M218.38,48.07H201.51a3.44,3.44,0,1,1,0-6.87h16.87a3.44,3.44,0,1,1,0,6.87Z" transform="translate(-16.24 -7.59)"/><path class="cls-6" d="M225.29,62.68H201.51a3.44,3.44,0,1,1,0-6.87h23.78a3.44,3.44,0,1,1,0,6.87Z" transform="translate(-16.24 -7.59)"/><rect class="cls-4" x="87.15" width="45.72" height="45.72" rx="1.78"/><path class="cls-5" d="M146.36,47.6H106.14a2.75,2.75,0,0,1-2.75-2.75v5.71a2.75,2.75,0,0,0,2.75,2.75h40.22a2.75,2.75,0,0,0,2.75-2.75V44.85A2.75,2.75,0,0,1,146.36,47.6Z" transform="translate(-16.24 -7.59)"/><path class="cls-6" d="M131.23,25.21H114.36a3.44,3.44,0,1,1,0-6.87h16.87a3.44,3.44,0,1,1,0,6.87Z" transform="translate(-16.24 -7.59)"/><path class="cls-6" d="M138.14,39.82H114.36a3.44,3.44,0,1,1,0-6.87h23.78a3.44,3.44,0,1,1,0,6.87Z" transform="translate(-16.24 -7.59)"/><rect class="cls-7" x="70.29" y="80.83" width="79.44" height="111.52"/><rect class="cls-8" x="63.03" y="80.83" width="93.95" height="33.23" rx="3.96"/><path class="cls-9" d="M167.12,117.07H85.38A6.12,6.12,0,0,1,79.27,111v4.58a6.12,6.12,0,0,0,6.11,6.11h81.74a6.12,6.12,0,0,0,6.11-6.11V111A6.12,6.12,0,0,1,167.12,117.07Z" transform="translate(-16.24 -7.59)"/><circle class="cls-6" cx="81.56" cy="97.44" r="5.92"/><path class="cls-10" d="M97.8,107.9a5.91,5.91,0,0,1-5.7-4.39,5.93,5.93,0,1,0,11.39,0A5.91,5.91,0,0,1,97.8,107.9Z" transform="translate(-16.24 -7.59)"/><path class="cls-6" d="M145.4,111h0a1.81,1.81,0,0,1-1.81-1.81V101a1.81,1.81,0,0,1,1.81-1.81h0a1.81,1.81,0,0,1,1.81,1.81v8.19A1.81,1.81,0,0,1,145.4,111Z" transform="translate(-16.24 -7.59)"/><path class="cls-6" d="M145.4,111h0a1.81,1.81,0,0,1-1.81-1.81V101a1.81,1.81,0,0,1,1.81-1.81h0a1.81,1.81,0,0,1,1.81,1.81v8.19A1.81,1.81,0,0,1,145.4,111Z" transform="translate(-16.24 -7.59)"/><path class="cls-10" d="M145.4,107.9a1.81,1.81,0,0,1-1.81-1.81v3.06a1.81,1.81,0,1,0,3.62,0v-3.06A1.81,1.81,0,0,1,145.4,107.9Z" transform="translate(-16.24 -7.59)"/><path class="cls-6" d="M153.42,111h0a1.81,1.81,0,0,1-1.81-1.81V101a1.81,1.81,0,0,1,1.81-1.81h0a1.81,1.81,0,0,1,1.81,1.81v8.19A1.81,1.81,0,0,1,153.42,111Z" transform="translate(-16.24 -7.59)"/><path class="cls-6" d="M161.44,111h0a1.81,1.81,0,0,1-1.81-1.81V101a1.81,1.81,0,0,1,1.81-1.81h0a1.81,1.81,0,0,1,1.81,1.81v8.19A1.81,1.81,0,0,1,161.44,111Z" transform="translate(-16.24 -7.59)"/><path class="cls-10" d="M153.42,107.9a1.81,1.81,0,0,1-1.81-1.81v3.06a1.81,1.81,0,0,0,3.62,0v-3.06A1.81,1.81,0,0,1,153.42,107.9Z" transform="translate(-16.24 -7.59)"/><path class="cls-10" d="M161.44,107.9a1.81,1.81,0,0,1-1.81-1.81v3.06a1.81,1.81,0,1,0,3.62,0v-3.06A1.81,1.81,0,0,1,161.44,107.9Z" transform="translate(-16.24 -7.59)"/><rect class="cls-8" x="63.03" y="119.97" width="93.95" height="33.23" rx="3.96"/><path class="cls-9" d="M167.12,156.21H85.38a6.11,6.11,0,0,1-6.11-6.11v4.59a6.12,6.12,0,0,0,6.11,6.11h81.74a6.12,6.12,0,0,0,6.11-6.11V150.1A6.11,6.11,0,0,1,167.12,156.21Z" transform="translate(-16.24 -7.59)"/><path class="cls-6" d="M103.72,144.18a5.92,5.92,0,1,1-5.92-5.92A5.92,5.92,0,0,1,103.72,144.18Z" transform="translate(-16.24 -7.59)"/><path class="cls-6" d="M145.4,150.09h0a1.81,1.81,0,0,1-1.81-1.81v-8.19a1.81,1.81,0,0,1,1.81-1.81h0a1.81,1.81,0,0,1,1.81,1.81v8.19A1.81,1.81,0,0,1,145.4,150.09Z" transform="translate(-16.24 -7.59)"/><path class="cls-6" d="M153.42,150.09h0a1.81,1.81,0,0,1-1.81-1.81v-8.19a1.81,1.81,0,0,1,1.81-1.81h0a1.81,1.81,0,0,1,1.81,1.81v8.19A1.81,1.81,0,0,1,153.42,150.09Z" transform="translate(-16.24 -7.59)"/><path class="cls-6" d="M161.44,150.09h0a1.81,1.81,0,0,1-1.81-1.81v-8.19a1.81,1.81,0,0,1,1.81-1.81h0a1.81,1.81,0,0,1,1.81,1.81v8.19A1.81,1.81,0,0,1,161.44,150.09Z" transform="translate(-16.24 -7.59)"/><rect class="cls-8" x="63.03" y="159.12" width="93.95" height="33.23" rx="3.96"/><path class="cls-9" d="M167.12,195.36H85.38a6.11,6.11,0,0,1-6.11-6.11v4.58a6.11,6.11,0,0,0,6.11,6.11h81.74a6.11,6.11,0,0,0,6.11-6.11v-4.58A6.11,6.11,0,0,1,167.12,195.36Z" transform="translate(-16.24 -7.59)"/><path class="cls-10" d="M97.8,147.13a5.91,5.91,0,0,1-5.7-4.39,5.93,5.93,0,1,0,11.39,0A5.91,5.91,0,0,1,97.8,147.13Z" transform="translate(-16.24 -7.59)"/><path class="cls-10" d="M145.4,147.13a1.81,1.81,0,0,1-1.81-1.8v3a1.81,1.81,0,0,0,3.62,0v-3A1.81,1.81,0,0,1,145.4,147.13Z" transform="translate(-16.24 -7.59)"/><path class="cls-10" d="M153.42,147.13a1.81,1.81,0,0,1-1.81-1.8v3a1.81,1.81,0,0,0,3.62,0v-3A1.81,1.81,0,0,1,153.42,147.13Z" transform="translate(-16.24 -7.59)"/><path class="cls-10" d="M161.44,147.13a1.81,1.81,0,0,1-1.81-1.8v3a1.81,1.81,0,0,0,3.62,0v-3A1.81,1.81,0,0,1,161.44,147.13Z" transform="translate(-16.24 -7.59)"/><circle class="cls-6" cx="110.01" cy="192.35" r="35.49"/><path class="cls-11" d="M149.27,198.9s0-.08,0-.11a2.23,2.23,0,0,0-.13-.46h0a2.14,2.14,0,0,0-1.45-1.28l-5.11-1.32,2-3.42a2.21,2.21,0,0,0,.29-1v-2.67a2.13,2.13,0,0,0-.37-1.31h0l0-.06,0,0v0l-.17-.19-3.43-3.43a2.13,2.13,0,0,0-1.58-.62,2.21,2.21,0,0,0-1,.29l-5.37,3.16-.55-.22-1.56-6a2.12,2.12,0,0,0-1.24-1.43,1.91,1.91,0,0,0-.52-.14l-.09,0h-5.27l-.11,0a1.91,1.91,0,0,0-.52.14,2.16,2.16,0,0,0-1.23,1.43l-1.56,6-.56.22-5.36-3.16a2.21,2.21,0,0,0-1-.29,2.13,2.13,0,0,0-1.58.62L108.25,187l-.17.19v0l0,0,0,.06h0a2.13,2.13,0,0,0-.37,1.31v2.67a2.1,2.1,0,0,0,.29,1l2,3.42L104.82,197a2.15,2.15,0,0,0-1.32,1l0,.08,0,.09a2.17,2.17,0,0,0-.17.58s0,.07,0,.11a1.27,1.27,0,0,0,0,.2v7.59a2.15,2.15,0,0,0,1.6,2.07l5.11,1.32-2,3.42a2.11,2.11,0,0,0-.29,1.19v2.54a2.12,2.12,0,0,0,.62,1.6l3.43,3.43a2.13,2.13,0,0,0,2.6.33l5.37-3.16.54.23,1.57,6a2.13,2.13,0,0,0,2.07,1.6h4.84a2.13,2.13,0,0,0,2.07-1.6l1.56-6,.55-.23,5.37,3.16a2.13,2.13,0,0,0,2.6-.33l3.43-3.43a2.16,2.16,0,0,0,.62-1.6v-2.54a2.11,2.11,0,0,0-.29-1.19l-2-3.42,5.11-1.32a2.15,2.15,0,0,0,1.6-2.07V199.1C149.28,199,149.27,199,149.27,198.9Zm-30.62,2.62a7.6,7.6,0,1,1,7.6,7.6A7.6,7.6,0,0,1,118.65,201.52Z" transform="translate(-16.24 -7.59)"/><path class="cls-9" d="M144.87,185.66v-.13a.66.66,0,0,0,0-.14,2.13,2.13,0,0,0-.61-1.39l-3.43-3.43a2.15,2.15,0,0,0-2.6-.32l-5.37,3.16-.54-.23-1.57-6a2.13,2.13,0,0,0-2.07-1.61h-4.84a2.13,2.13,0,0,0-2.07,1.61l-1.57,6-.54.23-5.38-3.16a2.13,2.13,0,0,0-2.59.32L108.25,184a2.13,2.13,0,0,0-.61,1.39.66.66,0,0,0,0,.14v2.76a2.1,2.1,0,0,0,.29,1.05l2,3.42-5.11,1.32a2.14,2.14,0,0,0-1.6,2.07v7.59a2.15,2.15,0,0,0,1.6,2.07l5.11,1.32-2,3.42a2.09,2.09,0,0,0-.29,1.08v2.65a2.11,2.11,0,0,0,.62,1.6l3.43,3.43a2.13,2.13,0,0,0,2.6.33l5.37-3.16.54.23,1.57,6a2.13,2.13,0,0,0,2.07,1.6h4.84a2.13,2.13,0,0,0,2.07-1.6l1.56-6,.55-.23,5.37,3.16a2.13,2.13,0,0,0,2.6-.33l3.43-3.43a2.15,2.15,0,0,0,.62-1.6v-2.65a2.09,2.09,0,0,0-.29-1.08l-2-3.42,5.11-1.32a2.15,2.15,0,0,0,1.6-2.07v-7.59a2.14,2.14,0,0,0-1.6-2.07l-5.11-1.32,2-3.42a2.21,2.21,0,0,0,.29-1.05v-2.63ZM126.25,206.2a7.63,7.63,0,1,1,7.63-7.63A7.64,7.64,0,0,1,126.25,206.2Z" transform="translate(-16.24 -7.59)"/><path class="cls-8" d="M126.25,182a16.54,16.54,0,1,0,16.54,16.54A16.54,16.54,0,0,0,126.25,182Zm0,24.14a7.6,7.6,0,1,1,7.6-7.6A7.6,7.6,0,0,1,126.25,206.17Z" transform="translate(-16.24 -7.59)"/><path class="cls-8" d="M130.32,186.17h-8.14a2.14,2.14,0,0,1-2.07-2.68l1.65-6.34a2.13,2.13,0,0,1,2.07-1.61h4.84a2.13,2.13,0,0,1,2.07,1.61l1.65,6.34A2.14,2.14,0,0,1,130.32,186.17Z" transform="translate(-16.24 -7.59)"/><path class="cls-8" d="M122.18,211h8.14a2.14,2.14,0,0,1,2.07,2.67L130.74,220a2.13,2.13,0,0,1-2.07,1.6h-4.84a2.13,2.13,0,0,1-2.07-1.6l-1.65-6.35A2.14,2.14,0,0,1,122.18,211Z" transform="translate(-16.24 -7.59)"/><path class="cls-8" d="M138.66,202.64v-8.13a2.14,2.14,0,0,1,2.67-2.07l6.35,1.64a2.14,2.14,0,0,1,1.6,2.07V201a2.15,2.15,0,0,1-1.6,2.07l-6.35,1.64A2.14,2.14,0,0,1,138.66,202.64Z" transform="translate(-16.24 -7.59)"/><path class="cls-8" d="M113.84,194.51v8.13a2.14,2.14,0,0,1-2.67,2.07l-6.35-1.64a2.15,2.15,0,0,1-1.6-2.07v-4.85a2.14,2.14,0,0,1,1.6-2.07l6.35-1.64A2.14,2.14,0,0,1,113.84,194.51Z" transform="translate(-16.24 -7.59)"/><path class="cls-8" d="M137.9,192.67l-5.75-5.75a2.14,2.14,0,0,1,.42-3.35l5.65-3.33a2.15,2.15,0,0,1,2.6.34l3.43,3.42a2.15,2.15,0,0,1,.33,2.6l-3.33,5.65A2.13,2.13,0,0,1,137.9,192.67Z" transform="translate(-16.24 -7.59)"/><path class="cls-8" d="M114.6,204.47l5.75,5.75a2.14,2.14,0,0,1-.43,3.36l-5.64,3.32a2.13,2.13,0,0,1-2.6-.33l-3.43-3.43a2.13,2.13,0,0,1-.33-2.59l3.33-5.65A2.13,2.13,0,0,1,114.6,204.47Z" transform="translate(-16.24 -7.59)"/><path class="cls-8" d="M132.15,210.22l5.75-5.75a2.13,2.13,0,0,1,3.35.43l3.33,5.65a2.13,2.13,0,0,1-.33,2.59l-3.43,3.43a2.13,2.13,0,0,1-2.6.33l-5.65-3.32A2.15,2.15,0,0,1,132.15,210.22Z" transform="translate(-16.24 -7.59)"/><path class="cls-8" d="M120.35,186.92l-5.75,5.75a2.13,2.13,0,0,1-3.35-.42l-3.33-5.65a2.15,2.15,0,0,1,.33-2.6l3.43-3.42a2.15,2.15,0,0,1,2.6-.34l5.64,3.33A2.13,2.13,0,0,1,120.35,186.92Z" transform="translate(-16.24 -7.59)"/><path class="cls-12" d="M126.25,212.42a13.85,13.85,0,1,1,13.84-13.85A13.87,13.87,0,0,1,126.25,212.42Zm0-25.53a11.68,11.68,0,1,0,11.68,11.68A11.69,11.69,0,0,0,126.25,186.89Z" transform="translate(-16.24 -7.59)"/><path class="cls-9" d="M126.25,210.25a11.68,11.68,0,1,1,11.68-11.68A11.69,11.69,0,0,1,126.25,210.25Zm0-19.31a7.63,7.63,0,1,0,7.63,7.63A7.64,7.64,0,0,0,126.25,190.94Z" transform="translate(-16.24 -7.59)"/></svg>