<svg xmlns="http://www.w3.org/2000/svg" viewBox="0 0 48 48"><title>Digital Marketing</title><g id="Digital_Marketing" data-name="Digital Marketing"><path d="M27,37H21a2,2,0,0,0-2,2v6a2,2,0,0,0,2,2h6a2,2,0,0,0,2-2V39A2,2,0,0,0,27,37Zm-3,7a2,2,0,1,1,2-2A2,2,0,0,1,24,44Z" style="fill:#006994"/><path d="M45,18H37a2,2,0,0,0-2,2v8a2,2,0,0,0,2,2h8a2,2,0,0,0,2-2V20A2,2,0,0,0,45,18Zm-3,5a1,1,0,0,1,0,2H41v2a1,1,0,0,1-2,0V25a1,1,0,0,1,0-2,3,3,0,0,1,3-3,1,1,0,0,1,0,2,1,1,0,0,0-1,1Z" style="fill:#006994"/><polygon points="23 17 15 20.2 15 29.8 23 33 23 17" style="fill:#006994"/><rect x="5" y="21" width="8" height="8" style="fill:#006994"/><path d="M3,28.46V21.54A4,4,0,0,0,3,28.46Z" style="fill:#006994"/><polygon points="5.22 31 6 38 10 38 9.22 31 5.22 31" style="fill:#006994"/><path d="M30,1H18a2,2,0,0,0-2,2V9a2,2,0,0,0,2,2H30a2,2,0,0,0,2-2V3A2,2,0,0,0,30,1ZM25.45,6.89C23.28,8,23.31,8,23,8a1,1,0,0,1-1-1c0-2.09-.12-2.48.47-2.85s1,0,3,1A1,1,0,0,1,25.45,6.89Z" style="fill:#006994"/><path d="M40.45,33.5A19,19,0,0,1,32.55,41,1,1,0,0,0,33,42.86c1,0,6.16-3.11,9.19-8.36A1,1,0,0,0,40.45,33.5Z" style="fill:#006994"/><path d="M40.44,14.5a1,1,0,0,0,1.74-1A20.76,20.76,0,0,0,36.6,7.21a1,1,0,0,0-1.2,1.6A18.7,18.7,0,0,1,40.44,14.5Z" style="fill:#006994"/><path d="M6.2,17.35a19,19,0,0,1,6.4-8.56,1,1,0,0,0-1.2-1.6,21,21,0,0,0-7.08,9.46A1,1,0,0,0,6.2,17.35Z" style="fill:#006994"/><path d="M15.45,41c-.53-.27-1-.53-1.45-.81a1,1,0,0,0-1.06,1.7c.51.31,1,.6,1.61.89A1,1,0,0,0,15.45,41Z" style="fill:#006994"/></g></svg>