<svg xmlns="http://www.w3.org/2000/svg" viewBox="0 0 48 48"><title>Web Programmer</title><g id="Web_Programmer" data-name="Web Programmer"><path d="M12.48,25,10,22.9l-1.14.49a8.13,8.13,0,0,0-5.34,5.88L1,40a5,5,0,0,0,1.46,3.54C4.25,45.31,6,45,9.35,45A10.67,10.67,0,0,1,9,41h1V38H9a1,1,0,0,1,0-2h1V27a2,2,0,0,1,2-2Z" style="fill:#006994"/><path d="M30.87,19.8c-2.06,2.45-1.16-.28-2.38,5.2H32.4L36,22Z" style="fill:#006994"/><path d="M44.52,29.27a8.1,8.1,0,0,0-5.34-5.88L38,22.9,35.52,25H36a2,2,0,0,1,2,2v9h1a1,1,0,0,1,0,2H38v3h1a10.7,10.7,0,0,1-.35,4H42a5,5,0,0,0,5-5Z" style="fill:#006994"/><path d="M21,22.49,21.56,25h4.88L27,22.49A9.08,9.08,0,0,1,21,22.49Z" style="fill:#006994"/><path d="M12,41H36V27H12Zm15.29-8.29a1,1,0,0,1,1.42-1.42l2,2a1,1,0,0,1,0,1.42C28.59,36.83,28.55,37,28,37a1,1,0,0,1-.71-1.71L28.59,34Zm-5.24,4,2-6a1,1,0,0,1,1.9.64l-2,6A1,1,0,0,1,22.05,36.68Zm-4.76-3.39,2-2a1,1,0,0,1,1.42,1.42L19.41,34l1.3,1.29a1,1,0,0,1-1.42,1.42l-2-2A1,1,0,0,1,17.29,33.29Z" style="fill:#006994"/><path d="M15,47H33a4,4,0,0,0,4-4H11A4,4,0,0,0,15,47Z" style="fill:#006994"/><path d="M29,19C31,17,31,14.88,31,13a8.92,8.92,0,0,1-5.22-1.59C22.48,13.26,19.89,13,17,13c0,2,.09,4,2.05,5.95A7,7,0,0,0,29,19Z" style="fill:#006994"/><path d="M17,11c3.12,0,5.8.28,8.93-2.07A6.85,6.85,0,0,0,30.83,11,2,2,0,0,0,33,9V5.5A1.5,1.5,0,0,0,31.5,4,1.5,1.5,0,0,1,30,2.5,1.5,1.5,0,0,0,28.5,1h-12A1.5,1.5,0,0,0,15,2.5c0,6.84-.2,7.15.59,7.91A2,2,0,0,0,17,11Z" style="fill:#006994"/><path d="M19.51,25c-1.22-5.45-.3-2.73-2.38-5.2L12,22l3.59,3Z" style="fill:#006994"/></g></svg>