<svg id="Layer_1" data-name="Layer 1" xmlns="http://www.w3.org/2000/svg" viewBox="0 0 185.79 236.11"><defs><style>.cls-1{fill:#372b72;}.cls-2{fill:#e7e8e9;}.cls-3{fill:#d1d2d4;}.cls-4{fill:#fff;}.cls-5{fill:#eb5b9c;}.cls-6{fill:#e1408f;}.cls-7{fill:#bdbec0;}.cls-8{fill:#25aee4;}.cls-9{fill:#1599d6;}.cls-10{fill:#fede3a;}.cls-11{fill:#e7ad26;}.cls-12{fill:#ed6ea7;}</style></defs><path class="cls-1" d="M215.51,134.37,176.56,95.42a5.14,5.14,0,0,0-7.29,0l-17.2,17.2a5.14,5.14,0,0,0,0,7.29l.45.45-6.33,6.33a12.36,12.36,0,0,0-2.67-1.62c-4.09-1.8-8.86-1.48-13.1-.08a37.28,37.28,0,0,0-5.61,2.4,37.28,37.28,0,0,0-5.61-2.4c-4.25-1.4-9-1.72-13.11.08a12.36,12.36,0,0,0-2.67,1.62l-6.33-6.33.46-.45a5.16,5.16,0,0,0,0-7.29l-17.2-17.2a5.14,5.14,0,0,0-7.29,0l-39,39a5.16,5.16,0,0,0,0,7.29l17.2,17.2a5.14,5.14,0,0,0,7.29,0l.45-.45,6.38,6.38h0a20.53,20.53,0,0,0,3.79,23.83L77,196.36a8.77,8.77,0,0,0-1.81,1.38L69.87,203a8.5,8.5,0,0,0,0,12h0a8.5,8.5,0,0,0,12,0l1.35-1.35a8.5,8.5,0,0,0,0,12h0a8.5,8.5,0,0,0,12,0l3.19-3.19a8.5,8.5,0,0,0,12,12l2.32-2.32.27.27a8.5,8.5,0,0,0,11.75,11.33,8.5,8.5,0,0,0,11.56-11.67c0-.08.09-.17.13-.25l2.64,2.64a8.5,8.5,0,0,0,12-12l3.19,3.19a8.5,8.5,0,1,0,12-12l1.35,1.35a8.5,8.5,0,0,0,12,0h0a8.5,8.5,0,0,0,0-12l-6.87-6.86,7.54-7.53a20.55,20.55,0,0,0,3.78-23.83h0l6.38-6.38.45.45a5.14,5.14,0,0,0,7.29,0l17.2-17.2A5.14,5.14,0,0,0,215.51,134.37Z" transform="translate(-31.91 -8.82)"/><circle class="cls-1" cx="92.9" cy="53.46" r="43.2"/><path class="cls-2" d="M162.51,147.4a4.67,4.67,0,0,0-2.34-7.46c-16-4.55-25.39-20-41-25.21-4.25-1.41-9-1.72-13.11.08s-7.26,6-7,10.48c.25,3.61,2.57,6.71,4.8,9.56,3,3.8,6,7.66,10,10.37,5.89,4,11.46,1.87,17.6,3.73l12.95,3.93A17,17,0,0,0,162.51,147.4Z" transform="translate(-31.91 -8.82)"/><path class="cls-3" d="M162.51,147.4a4.68,4.68,0,0,0-.25-6.21,17,17,0,0,1-18,5.41l-13-3.93c-6.13-1.87-11.71.29-17.59-3.73-4-2.72-7-6.58-10-10.37a25.52,25.52,0,0,1-4.17-6.7,9,9,0,0,0-.44,3.42c.25,3.61,2.57,6.71,4.8,9.56,3,3.8,6,7.66,10,10.37,5.89,4,11.46,1.87,17.6,3.73l12.95,3.93A17,17,0,0,0,162.51,147.4Z" transform="translate(-31.91 -8.82)"/><path class="cls-4" d="M184.19,154.52l16.06-16.06-38.05-38-16.06,16.06-39.26,39.26L155,203.81l25.46-25.46a20.54,20.54,0,0,0,3.78-23.83Z" transform="translate(-31.91 -8.82)"/><rect class="cls-2" x="178.58" y="140.99" width="22.71" height="6.44" transform="translate(-78.25 167.73) rotate(-45)"/><path class="cls-2" d="M179.63,150l4.56,4.55a20.56,20.56,0,0,1-3.78,23.84L155,203.81l-4.55-4.56,25.45-25.45A20.53,20.53,0,0,0,179.63,150Z" transform="translate(-31.91 -8.82)"/><path class="cls-3" d="M130.15,140.73c9.06,5.7,20.83,8.87,30,6a1.31,1.31,0,0,1,1.59,1.83c-3.5,7.22-2.6,13.26-.13,19.39Z" transform="translate(-31.91 -8.82)"/><path class="cls-3" d="M70.61,192l62.71,33.43L171,187.72s-5.47-18.56-19.63-32.71c-6.9-6.9-17.64-12.76-26.85-16.95Z" transform="translate(-31.91 -8.82)"/><rect class="cls-5" x="166.47" y="84.18" width="34.63" height="65.4" rx="3.52" transform="translate(364.48 60.75) rotate(135)"/><path class="cls-6" d="M189.2,139.49l17.2-17.2a5.16,5.16,0,0,0,0-7.29l9.11,9.11a5.14,5.14,0,0,1,0,7.29l-17.2,17.2a5.16,5.16,0,0,1-7.29,0l-9.11-9.11A5.16,5.16,0,0,0,189.2,139.49Z" transform="translate(-31.91 -8.82)"/><circle class="cls-6" cx="158.45" cy="114.63" r="5.37"/><path class="cls-2" d="M103.47,116.48,87.41,100.42l-38,38,16.06,16.06h0a20.53,20.53,0,0,0,3.79,23.83l51.18,51.19,48.07-48.07Z" transform="translate(-31.91 -8.82)"/><rect class="cls-7" x="56.45" y="132.86" width="6.44" height="22.71" transform="translate(-116.41 75.62) rotate(-45)"/><path class="cls-2" d="M167.72,204.77l-11.28-11.28,12-12,11.28,11.28a8.5,8.5,0,0,1,0,12h0A8.5,8.5,0,0,1,167.72,204.77Z" transform="translate(-31.91 -8.82)"/><path class="cls-7" d="M172.23,200.26l-6.78-6.77a6.37,6.37,0,0,0-9,0h0l11,11a8.73,8.73,0,0,0,11.66.78,8.63,8.63,0,0,0,2.42-3.23A8.51,8.51,0,0,1,172.23,200.26Z" transform="translate(-31.91 -8.82)"/><path class="cls-2" d="M154.35,215.43l-9.92-9.93,12-12,9.93,9.92a8.5,8.5,0,0,1,0,12h0A8.5,8.5,0,0,1,154.35,215.43Z" transform="translate(-31.91 -8.82)"/><path class="cls-7" d="M158.86,210.92l-5.42-5.42a6.39,6.39,0,0,0-9,0h0l9.69,9.7a8.71,8.71,0,0,0,11.65.77,8.42,8.42,0,0,0,2.41-3.23A8.48,8.48,0,0,1,158.86,210.92Z" transform="translate(-31.91 -8.82)"/><path class="cls-2" d="M139.14,224.26l-6.73-6.74,12-12,6.73,6.74a8.5,8.5,0,0,1,0,12h0A8.5,8.5,0,0,1,139.14,224.26Z" transform="translate(-31.91 -8.82)"/><path class="cls-7" d="M143.65,219.75l-2.23-2.23a6.37,6.37,0,0,0-9,0h0l6.5,6.5a8.72,8.72,0,0,0,11.66.78,8.52,8.52,0,0,0,2.41-3.23A8.51,8.51,0,0,1,143.65,219.75Z" transform="translate(-31.91 -8.82)"/><path class="cls-2" d="M123,232.17l-2.64-2.63,12-12,2.63,2.64a8.49,8.49,0,0,1,0,12h0A8.49,8.49,0,0,1,123,232.17Z" transform="translate(-31.91 -8.82)"/><path class="cls-7" d="M136.86,229.48a8.51,8.51,0,0,1-9.33-1.81L99.17,199.3l0-.05L73.76,173.8A20.55,20.55,0,0,1,70,150l-4.56,4.55a20.53,20.53,0,0,0,3.79,23.83l25.45,25.46h0L123,232.17a8.49,8.49,0,0,0,12,0A8.27,8.27,0,0,0,136.86,229.48Z" transform="translate(-31.91 -8.82)"/><rect class="cls-8" x="48.51" y="84.18" width="34.63" height="65.4" rx="3.52" transform="translate(70.01 -21.13) rotate(45)"/><path class="cls-9" d="M60.41,139.49l-17.2-17.2a5.16,5.16,0,0,1,0-7.29l-9.11,9.11a5.16,5.16,0,0,0,0,7.29l17.2,17.2a5.16,5.16,0,0,0,7.29,0l9.11-9.11A5.16,5.16,0,0,1,60.41,139.49Z" transform="translate(-31.91 -8.82)"/><path class="cls-9" d="M63.05,127.24a5.37,5.37,0,1,1,0-7.59A5.36,5.36,0,0,1,63.05,127.24Z" transform="translate(-31.91 -8.82)"/><path class="cls-4" d="M87.11,147.4a4.67,4.67,0,0,1,2.33-7.46c16-4.55,25.39-20,41-25.21,4.24-1.41,9-1.72,13.1.08s7.26,6,7,10.48c-.24,3.61-2.57,6.71-4.8,9.56-3,3.8-6,7.66-10,10.37-5.88,4-11.46,1.87-17.59,3.73l-13,3.93A17,17,0,0,1,87.11,147.4Z" transform="translate(-31.91 -8.82)"/><path class="cls-3" d="M136.05,143.86a26,26,0,0,0-7.68-1.7,25.79,25.79,0,0,0-10.24.67l-13,3.93a17,17,0,0,1-18-5.39,4.67,4.67,0,0,0-.07,6,17,17,0,0,0,18.06,5.48l13-3.93c3.28-1,6.67-.79,10-1a17.46,17.46,0,0,1,9.68,2.34A1.46,1.46,0,0,0,140,150a2.57,2.57,0,0,0,0-1.87,6.26,6.26,0,0,0-2.81-3.61C136.84,144.25,136.45,144.05,136.05,143.86Z" transform="translate(-31.91 -8.82)"/><path class="cls-4" d="M81.89,204.77l5.27-5.27a8.5,8.5,0,0,0,0-12h0a8.5,8.5,0,0,0-12,0l-5.27,5.27a8.5,8.5,0,0,0,0,12h0A8.5,8.5,0,0,0,81.89,204.77Z" transform="translate(-31.91 -8.82)"/><path class="cls-3" d="M77.33,200.21l5.27-5.27a8.48,8.48,0,0,0,1.83-9.29,8.5,8.5,0,0,1,2.73,13.85l-5.27,5.27a8.5,8.5,0,0,1-12,0A8.73,8.73,0,0,1,68,202,8.5,8.5,0,0,0,77.33,200.21Z" transform="translate(-31.91 -8.82)"/><path class="cls-4" d="M95.26,215.43,105.75,205a8.52,8.52,0,0,0,0-12h0a8.5,8.5,0,0,0-12,0L83.24,203.41a8.52,8.52,0,0,0,0,12h0A8.5,8.5,0,0,0,95.26,215.43Z" transform="translate(-31.91 -8.82)"/><path class="cls-3" d="M90.7,210.87l10.49-10.48A8.5,8.5,0,0,0,103,191.1a8.4,8.4,0,0,1,2.73,1.83,8.52,8.52,0,0,1,0,12L95.26,215.43a8.48,8.48,0,0,1-13.84-2.73A8.47,8.47,0,0,0,90.7,210.87Z" transform="translate(-31.91 -8.82)"/><path class="cls-4" d="M110.47,224.26l15.37-15.37a8.5,8.5,0,0,0,0-12h0a8.5,8.5,0,0,0-12,0L98.45,212.24a8.5,8.5,0,0,0,0,12h0A8.5,8.5,0,0,0,110.47,224.26Z" transform="translate(-31.91 -8.82)"/><path class="cls-3" d="M105.91,219.7l15.37-15.37a8.5,8.5,0,0,0,1.83-9.29,8.5,8.5,0,0,1,2.73,13.85l-15.37,15.37a8.5,8.5,0,0,1-13.85-2.73A8.5,8.5,0,0,0,105.91,219.7Z" transform="translate(-31.91 -8.82)"/><path class="cls-4" d="M126.59,232.17l8.29-8.29a8.5,8.5,0,0,0,0-12h0a8.5,8.5,0,0,0-12,0l-8.29,8.3a8.49,8.49,0,0,0,0,12h0A8.5,8.5,0,0,0,126.59,232.17Z" transform="translate(-31.91 -8.82)"/><path class="cls-3" d="M122,227.62l8.3-8.3a8.5,8.5,0,0,0,1.82-9.29,8.5,8.5,0,0,1,2.73,13.85l-8.29,8.29a8.5,8.5,0,0,1-12,0,8.26,8.26,0,0,1-1.83-2.72A8.5,8.5,0,0,0,122,227.62Z" transform="translate(-31.91 -8.82)"/><circle class="cls-10" cx="92.9" cy="43.2" r="43.2"/><path class="cls-11" d="M152.82,50.74a.59.59,0,0,0,0-.13,2.09,2.09,0,0,0-.14-.56h0a2.57,2.57,0,0,0-1.77-1.56l-6.22-1.61,2.45-4.16a2.57,2.57,0,0,0,.36-1.27V38.18a2.62,2.62,0,0,0-.45-1.6h0a.18.18,0,0,1-.05-.07l0,0v0l-.21-.24L142.54,32a2.6,2.6,0,0,0-3.16-.4l-6.53,3.85-.68-.28-1.9-7.34a2.58,2.58,0,0,0-1.51-1.75,2.66,2.66,0,0,0-.63-.17l-.12,0h-6.4l-.13,0a2.34,2.34,0,0,0-.64.18,2.6,2.6,0,0,0-1.5,1.74l-1.9,7.34-.67.28-6.54-3.85a2.58,2.58,0,0,0-1.23-.36,2.64,2.64,0,0,0-1.93.76L102.9,36.2l-.2.24,0,0,0,0-.05.07h0a2.68,2.68,0,0,0-.45,1.6v3.25a2.68,2.68,0,0,0,.36,1.27L105,46.86l-6.22,1.61a2.58,2.58,0,0,0-1.61,1.23.47.47,0,0,0-.05.1l-.06.11a2.35,2.35,0,0,0-.2.7s0,.09,0,.13a2,2,0,0,0,0,.25v9.23a2.6,2.6,0,0,0,2,2.52L105,64.35l-2.45,4.16a2.61,2.61,0,0,0-.36,1.45v3.1a2.6,2.6,0,0,0,.76,2l4.17,4.17a2.6,2.6,0,0,0,3.16.4l6.54-3.85.67.28,1.9,7.34a2.6,2.6,0,0,0,2.52,2h5.9a2.59,2.59,0,0,0,2.51-2L132.18,76l.66-.28,6.54,3.85a2.6,2.6,0,0,0,3.16-.4L146.71,75a2.6,2.6,0,0,0,.76-2V70a2.61,2.61,0,0,0-.36-1.45l-2.45-4.16,6.22-1.61a2.6,2.6,0,0,0,2-2.52V51A2,2,0,0,0,152.82,50.74Zm-37.26,3.2a9.25,9.25,0,1,1,9.25,9.25A9.25,9.25,0,0,1,115.56,53.94Z" transform="translate(-31.91 -8.82)"/><path class="cls-6" d="M147.47,34.63v-.16c0-.06,0-.11,0-.17a2.65,2.65,0,0,0-.75-1.69l-4.17-4.17a2.62,2.62,0,0,0-3.16-.4l-6.54,3.85q-.33-.15-.66-.27l-1.91-7.35a2.59,2.59,0,0,0-2.51-1.95h-5.9a2.59,2.59,0,0,0-2.52,1.95l-1.9,7.35c-.23.08-.45.17-.67.27L110.23,28a2.62,2.62,0,0,0-3.16.4l-4.17,4.17a2.65,2.65,0,0,0-.75,1.69v.17s0,.07,0,.1v3.27a2.68,2.68,0,0,0,.36,1.27L105,43.27l-6.22,1.61a2.6,2.6,0,0,0-2,2.52v9.23a2.59,2.59,0,0,0,2,2.52L105,60.76l-2.45,4.16a2.61,2.61,0,0,0-.35,1.32v3.23a2.6,2.6,0,0,0,.76,2l4.17,4.17a2.6,2.6,0,0,0,3.16.4l6.54-3.85.67.28,1.9,7.34a2.6,2.6,0,0,0,2.52,1.95h5.9a2.59,2.59,0,0,0,2.51-1.95l1.91-7.34.66-.28L139.38,76a2.6,2.6,0,0,0,3.16-.4l4.17-4.17a2.6,2.6,0,0,0,.76-2V66.24a2.62,2.62,0,0,0-.36-1.32l-2.45-4.16,6.22-1.61a2.59,2.59,0,0,0,2-2.52V47.4a2.6,2.6,0,0,0-2-2.52l-6.22-1.61,2.45-4.16a2.57,2.57,0,0,0,.36-1.27V34.63Zm-22.66,25a9.29,9.29,0,1,1,9.28-9.29A9.3,9.3,0,0,1,124.81,59.64Z" transform="translate(-31.91 -8.82)"/><path class="cls-5" d="M124.81,30.22a20.13,20.13,0,1,0,20.13,20.13A20.13,20.13,0,0,0,124.81,30.22Zm0,29.38a9.25,9.25,0,1,1,9.25-9.25A9.25,9.25,0,0,1,124.81,59.6Z" transform="translate(-31.91 -8.82)"/><path class="cls-5" d="M129.76,35.25h-9.9A2.61,2.61,0,0,1,117.34,32l2-7.72a2.6,2.6,0,0,1,2.52-1.95h5.9a2.59,2.59,0,0,1,2.51,1.95l2,7.72A2.6,2.6,0,0,1,129.76,35.25Z" transform="translate(-31.91 -8.82)"/><path class="cls-5" d="M119.86,65.45h9.9a2.59,2.59,0,0,1,2.51,3.25l-2,7.73a2.59,2.59,0,0,1-2.51,1.94h-5.9a2.6,2.6,0,0,1-2.52-1.94l-2-7.73A2.6,2.6,0,0,1,119.86,65.45Z" transform="translate(-31.91 -8.82)"/><path class="cls-5" d="M139.91,55.3V45.4a2.6,2.6,0,0,1,3.25-2.52l7.72,2a2.6,2.6,0,0,1,2,2.52v5.9a2.61,2.61,0,0,1-2,2.52l-7.72,2A2.6,2.6,0,0,1,139.91,55.3Z" transform="translate(-31.91 -8.82)"/><path class="cls-5" d="M109.71,45.4v9.9a2.61,2.61,0,0,1-3.26,2.52l-7.72-2a2.61,2.61,0,0,1-2-2.52V47.4a2.6,2.6,0,0,1,2-2.52l7.72-2A2.61,2.61,0,0,1,109.71,45.4Z" transform="translate(-31.91 -8.82)"/><path class="cls-5" d="M139,43.17l-7-7a2.61,2.61,0,0,1,.52-4.08L139.38,28a2.62,2.62,0,0,1,3.16.4l4.17,4.18a2.59,2.59,0,0,1,.4,3.15l-4,6.88A2.61,2.61,0,0,1,139,43.17Z" transform="translate(-31.91 -8.82)"/><path class="cls-5" d="M110.63,57.53l7,7a2.62,2.62,0,0,1-.52,4.09l-6.88,4a2.59,2.59,0,0,1-3.16-.4l-4.17-4.17a2.6,2.6,0,0,1-.4-3.16l4-6.87A2.59,2.59,0,0,1,110.63,57.53Z" transform="translate(-31.91 -8.82)"/><path class="cls-5" d="M132,64.52l7-7a2.6,2.6,0,0,1,4.09.52l4,6.87a2.6,2.6,0,0,1-.4,3.16l-4.17,4.17a2.59,2.59,0,0,1-3.16.4l-6.88-4A2.62,2.62,0,0,1,132,64.52Z" transform="translate(-31.91 -8.82)"/><path class="cls-5" d="M117.63,36.17l-7,7a2.6,2.6,0,0,1-4.08-.52l-4-6.88a2.59,2.59,0,0,1,.4-3.15l4.17-4.18a2.62,2.62,0,0,1,3.16-.4l6.88,4.05A2.61,2.61,0,0,1,117.63,36.17Z" transform="translate(-31.91 -8.82)"/><path class="cls-12" d="M124.81,67.2a16.85,16.85,0,1,1,16.85-16.85A16.87,16.87,0,0,1,124.81,67.2Zm0-31.07A14.22,14.22,0,1,0,139,50.35,14.24,14.24,0,0,0,124.81,36.13Z" transform="translate(-31.91 -8.82)"/><path class="cls-6" d="M124.81,64.56A14.22,14.22,0,1,1,139,50.35,14.23,14.23,0,0,1,124.81,64.56Zm0-23.5a9.29,9.29,0,1,0,9.28,9.29A9.3,9.3,0,0,0,124.81,41.06Z" transform="translate(-31.91 -8.82)"/></svg>