<svg xmlns="http://www.w3.org/2000/svg" viewBox="0 0 48 48"><title>Server </title><g id="Server"><path d="M36,1H12V7H36ZM16,5a1,1,0,0,1,0-2A1,1,0,0,1,16,5Zm3,0a1,1,0,0,1,0-2A1,1,0,0,1,19,5Zm3,0a1,1,0,0,1,0-2A1,1,0,0,1,22,5ZM32,5H27a1,1,0,0,1,0-2h5A1,1,0,0,1,32,5Z" style="fill:#006994"/><path d="M43.28,44H25.72c-1-1.66-.72,2-.72-10a1,1,0,0,0-2,0c0,11.89.21,8.4-.72,10H4.72a2,2,0,1,0,0,2H22.28a2,2,0,0,0,3.44,0H43.28a2,2,0,1,0,0-2Z" style="fill:#006994"/><path d="M36,9H12v6H36ZM16,13a1,1,0,0,1,0-2A1,1,0,0,1,16,13Zm3,0a1,1,0,0,1,0-2A1,1,0,0,1,19,13Zm3,0a1,1,0,0,1,0-2A1,1,0,0,1,22,13Zm10,0H27a1,1,0,0,1,0-2h5A1,1,0,0,1,32,13Z" style="fill:#006994"/><path d="M36,17H12v6H36ZM16,21a1,1,0,0,1,0-2A1,1,0,0,1,16,21Zm3,0a1,1,0,0,1,0-2A1,1,0,0,1,19,21Zm3,0a1,1,0,0,1,0-2A1,1,0,0,1,22,21Zm10,0H27a1,1,0,0,1,0-2h5A1,1,0,0,1,32,21Z" style="fill:#006994"/><path d="M36,25H12v6H36ZM16,29a1,1,0,0,1,0-2A1,1,0,0,1,16,29Zm3,0a1,1,0,0,1,0-2A1,1,0,0,1,19,29Zm3,0a1,1,0,0,1,0-2A1,1,0,0,1,22,29Zm10,0H27a1,1,0,0,1,0-2h5A1,1,0,0,1,32,29Z" style="fill:#006994"/></g></svg>